<?xml version="1.0" encoding="UTF-8" standalone="no"?>
<svg
   height="56"
   viewBox="0 0 56 56"
   width="56"
   version="1.1"
   id="svg4"
   sodipodi:docname="gear-alt-fill.svg"
   inkscape:version="1.1.2 (0a00cf5339, 2022-02-04)"
   xmlns:inkscape="http://www.inkscape.org/namespaces/inkscape"
   xmlns:sodipodi="http://sodipodi.sourceforge.net/DTD/sodipodi-0.dtd"
   xmlns="http://www.w3.org/2000/svg"
   xmlns:svg="http://www.w3.org/2000/svg">
  <defs
     id="defs8" />
  <sodipodi:namedview
     id="namedview6"
     pagecolor="#ffffff"
     bordercolor="#666666"
     borderopacity="1.0"
     inkscape:pageshadow="2"
     inkscape:pageopacity="0.0"
     inkscape:pagecheckerboard="0"
     showgrid="false"
     inkscape:zoom="11.5"
     inkscape:cx="28.043478"
     inkscape:cy="28"
     inkscape:window-width="1402"
     inkscape:window-height="1783"
     inkscape:window-x="1563"
     inkscape:window-y="282"
     inkscape:window-maximized="0"
     inkscape:current-layer="svg4" />
  <path
     d="m18.7917819 47.4333262c-2.455097-.5432286-4.7688821-1.4624372-6.8778614-2.694132l.1238514-2.4248414c.168912-3.3070638-2.38380448-5.850592-5.68212655-5.6821266l-2.68051418.1369103c-1.2552175-1.9937532-2.22519257-4.185172-2.85265254-6.5169816l2.10374479-1.8992856c2.45788604-2.2190084 2.45138898-5.8225976 0-8.0357404l-2.24327877-2.0252585c.55680792-2.282373 1.43999294-4.4368497 2.59730287-6.4111778l3.07539783.1570793c3.30706381.168912 5.85059205-2.38380448 5.68212655-5.68212655l-.1570793-3.07539783c1.9743281-1.15730993 4.1288048-2.04049495 6.4111778-2.59730287l2.0252585 2.24327877c2.2190084 2.45788604 5.8225976 2.45138898 8.0357404 0l1.8992856-2.10374479c2.3318096.62745997 4.5232284 1.59743504 6.5169869 2.85265588l-.1369156 2.68051084c-.1689119 3.30706381 2.3838045 5.85059205 5.6821266 5.68212655l2.4248414-.1238514c1.2316948 2.1089793 2.1509034 4.4227644 2.694132 6.8778614l-1.6895515 1.525347c-2.457886 2.2190084-2.4513889 5.8225976 0 8.0357404l1.5602089 1.408575c-.6165867 2.5023605-1.6256955 4.8502225-2.9582811 6.9745407l-2.0313497-.1037588c-3.3070638-.1689119-5.850592 2.3838045-5.6821266 5.6821266l.1037537 2.0313529c-2.1243131 1.3325824-4.4721751 2.3416912-6.9745356 2.9582779l-1.408575-1.5602089c-2.2190084-2.457886-5.8225976-2.4513889-8.0357404 0zm5.2082181-13.4333262c5.5228475 0 10-4.4771525 10-10s-4.4771525-10-10-10-10 4.4771525-10 10 4.4771525 10 10 10z"
     fill-rule="evenodd"
     transform="translate(4 4)"
     id="path2"
     style="fill:none;stroke:#333333;stroke-opacity:1;stroke-width:3;stroke-miterlimit:4;stroke-dasharray:none" />
</svg>
