<svg width="24" height="24" viewBox="0 0 24 24" fill="none" xmlns="http://www.w3.org/2000/svg">
<g>
<path d="M4.53572 13.75L3.75075 14.2495C2.49147 15.0509 2.52199 16.8994 3.80704 17.6587L11.0048 21.9119C11.6205 22.2758 12.3837 22.2831 13.0064 21.9312L20.5326 17.6772C21.8621 16.9258 21.8929 15.0217 20.5884 14.2277L19.8036 13.75" stroke="#333333" stroke-width="1.5"/>
<path d="M4.53572 9.75L3.75075 10.2495C2.49147 11.0509 2.52199 12.8994 3.80704 13.6587L11.0048 17.9119C11.6205 18.2758 12.3837 18.2831 13.0064 17.9312L20.5326 13.6772C21.8621 12.9258 21.8929 11.0217 20.5884 10.2277L19.8036 9.75" stroke="#333333" stroke-width="1.5"/>
<path d="M3.91391 8.97185C2.60385 8.19773 2.60385 6.30227 3.91391 5.52815L11.0048 1.33808C11.6205 0.974229 12.3837 0.966882 13.0064 1.31881L20.4195 5.50887C21.7741 6.27447 21.7741 8.22553 20.4195 8.99113L13.0064 13.1812C12.3837 13.5331 11.6205 13.5258 11.0048 13.1619L3.91391 8.97185Z" stroke="#333333" stroke-width="1.5"/>
</g>
</svg> 
