<?xml version="1.0" encoding="UTF-8" standalone="no"?>
<!-- Uploaded to: SVG Repo, www.svgrepo.com, Generator: SVG Repo Mixer Tools -->

<svg
   width="800px"
   height="800px"
   viewBox="0 0 128 128"
   aria-hidden="true"
   role="img"
   class="iconify iconify--noto"
   preserveAspectRatio="xMidYMid meet"
   version="1.1"
   id="svg1524"
   sodipodi:docname="sun-svgrepo-com.svg"
   inkscape:version="1.1.2 (0a00cf5339, 2022-02-04)"
   xmlns:inkscape="http://www.inkscape.org/namespaces/inkscape"
   xmlns:sodipodi="http://sodipodi.sourceforge.net/DTD/sodipodi-0.dtd"
   xmlns="http://www.w3.org/2000/svg"
   xmlns:svg="http://www.w3.org/2000/svg">
  <defs
     id="defs1528" />
  <sodipodi:namedview
     id="namedview1526"
     pagecolor="#ffffff"
     bordercolor="#666666"
     borderopacity="1.0"
     inkscape:pageshadow="2"
     inkscape:pageopacity="0.0"
     inkscape:pagecheckerboard="0"
     showgrid="false"
     inkscape:zoom="0.805"
     inkscape:cx="399.37888"
     inkscape:cy="400"
     inkscape:window-width="3840"
     inkscape:window-height="2065"
     inkscape:window-x="1200"
     inkscape:window-y="0"
     inkscape:window-maximized="1"
     inkscape:current-layer="svg1524" />
  <path
     d="M37.41 41.95c-9.71 12.48-9.54 34.65 2.87 45.64c14.09 12.47 33.92 12.34 46.39.87c14.95-13.76 14.09-36.66.87-49.63c-13.29-13.04-37.04-13.72-50.13 3.12z"
     fill="#fcc11a"
     id="path1504"
     style="stroke:#b0ab9d;stroke-opacity:1;stroke-width:0.888;stroke-miterlimit:4;stroke-dasharray:none" />
  <path
     d="M53 37.67c-3.84-1.7-8.04 2.93-9.87 6.09c-1.83 3.17-3.53 9.38.37 10.97c3.9 1.58 6.7-1.1 9.51-5.73c2.79-4.63 4.38-9.38-.01-11.33z"
     fill="#fee269"
     id="path1506" />
  <path
     d="M63 20.27c-.93 1.74-.62 3.08 1.23 3.52c1.85.44 13.36 2.31 14.33 2.37c1.41.09 1.93-.97 1.76-2.2c-.18-1.23-2.99-18.46-3.25-20.04S75.14.76 73.55 2.87S63.7 18.96 63 20.27z"
     fill="#ffa722"
     id="path1508"
     style="stroke:#b0ab9d;stroke-opacity:1;stroke-width:0.888;stroke-miterlimit:4;stroke-dasharray:none" />
  <path
     d="M92.8 32.23c-1.81.56-1.76 1.67-.79 3.08c.97 1.41 7.65 11.6 8.26 12.31c.62.7 1.67.88 2.55-.18c.88-1.05 11.86-16.45 12.66-17.41c1.32-1.58.53-3.25-1.49-2.73c-1.54.41-20.05 4.58-21.19 4.93z"
     fill="#ffa722"
     id="path1510"
     style="stroke:#b0ab9d;stroke-opacity:1;stroke-width:0.888;stroke-miterlimit:4;stroke-dasharray:none" />
  <path
     d="M106.6 61.86c-1.3-.74-2.99-.53-3.43 1.14c-.44 1.67-2.37 13.8-2.55 14.86s.62 2.11 1.93 1.85s19.45-2.95 20.66-3.25c2.11-.53 2.81-2.64.62-4.22c-1.42-1.03-16-9.68-17.23-10.38z"
     fill="#ffa722"
     id="path1512"
     style="stroke:#b0ab9d;stroke-opacity:1;stroke-width:0.888;stroke-miterlimit:4;stroke-dasharray:none" />
  <path
     d="M92.09 90.6c1.4-.75 2.64-.18 2.99 1.41c.35 1.58 4.22 17.76 4.84 20.75c.31 1.5-1.41 2.73-2.81 1.85c-1.41-.88-16.69-11.53-17.67-12.4c-1.41-1.23-.43-2.51.26-3.16c1.4-1.33 11.07-7.74 12.39-8.45z"
     fill="#ffa722"
     id="path1514"
     style="stroke:#b0ab9d;stroke-opacity:1;stroke-width:0.888;stroke-miterlimit:4;stroke-dasharray:none" />
  <path
     d="M49.54 99.48c-1.77-.17-2.29 1.41-2.02 2.81c.26 1.41 2.9 19.24 3.08 20.57c.26 1.93 2.29 2.73 3.6.79s10.35-16.4 11.08-17.76c1.32-2.46.35-2.99-.97-3.6c-1.31-.61-12.92-2.63-14.77-2.81z"
     fill="#ffa722"
     id="path1516"
     style="stroke:#b0ab9d;stroke-opacity:1;stroke-width:0.888;stroke-miterlimit:4;stroke-dasharray:none" />
  <path
     d="M24.23 79c1.23-2.02 2.81-1.49 3.96.44c.78 1.32 7.38 10.2 8 11.16c.62.97.88 2.81-1.05 3.25c-1.95.45-17.68 4.58-20.14 5.02c-2.46.44-3.87-1.49-2.29-3.6c.92-1.24 10.82-15.12 11.52-16.27z"
     fill="#ffa722"
     id="path1518"
     style="stroke:#b0ab9d;stroke-opacity:1;stroke-width:0.888;stroke-miterlimit:4;stroke-dasharray:none" />
  <path
     d="M20.89 63.7c2.25 1 3.31.64 3.78-.97c.62-2.11 2.46-11.78 2.55-13.98c.06-1.43-.53-2.81-2.73-2.46S6.47 48.85 4.45 49.55c-2.35.82-2.18 3.4-.62 4.22c1.85.97 15.47 9.23 17.06 9.93z"
     fill="#ffa722"
     id="path1520"
     style="stroke:#b0ab9d;stroke-opacity:1;stroke-width:0.888;stroke-miterlimit:4;stroke-dasharray:none" />
  <path
     d="M48.23 26.78c1.27-1.01.88-2.46-.26-3.25c-1.14-.79-15.26-11-17.05-12.4c-1.58-1.23-3.52-.79-2.99 2.02c.38 2.02 4.88 19.7 5.19 20.92c.35 1.41 1.41 2.11 2.64 1.23c1.21-.87 11.15-7.46 12.47-8.52z"
     fill="#ffa722"
     id="path1522"
     style="stroke:#b0ab9d;stroke-opacity:1;stroke-width:0.888;stroke-miterlimit:4;stroke-dasharray:none" />
</svg>
