<svg width="62" height="78" viewBox="0 0 62 78" fill="none" xmlns="http://www.w3.org/2000/svg">
<path fill-rule="evenodd" clip-rule="evenodd" d="M35.3752 11.8396C36.7712 13.239 38.4184 13.9388 40.3169 13.9388C42.1596 13.9388 43.7649 13.225 45.1329 11.7976C46.501 10.3701 47.185 8.73273 47.185 6.88541C47.185 5.0381 46.5149 3.42872 45.1748 2.05723C43.8347 0.685736 42.2154 0 40.3169 0C38.4184 0 36.7712 0.671741 35.3752 2.01524C33.9793 3.35875 33.2813 4.98212 33.2813 6.88541C33.2813 8.78871 33.9793 10.4401 35.3752 11.8396ZM3.29629 57.7703C8.78005 58.8751 21.8066 61.4606 21.8066 61.4606C25.5181 61.6227 26.6937 60.5763 27.7178 56.9635L31.1036 47.2742L38.4743 54.1597V75.1518C38.4743 78.9494 45.5099 78.9494 45.5099 75.1518C45.5099 74.1322 45.5321 71.8127 45.5596 68.9539C45.6036 64.3631 45.661 58.3818 45.661 54.1597C45.661 49.4683 43.1689 47.2742 43.1689 47.2742L38.1392 41.9842L40.3169 31.4882C42.6063 34.1752 45.3982 36.3024 48.6926 37.8698C52.0429 39.4372 55.7202 40.2209 59.4135 40.2209C63.1069 40.2209 62.6084 33.1675 59.4135 33.1675C56.2186 33.1675 53.1318 32.3838 50.4515 30.8164C47.8271 29.305 45.7891 27.2898 44.3373 24.7707L40.9032 19.2288C39.3397 16.9336 37.3854 15.7861 35.0402 15.7861C34.7052 15.7861 34.2445 15.8421 33.6582 15.954C33.0719 16.066 32.6113 16.1219 32.2762 16.1219L17.7456 22.4856C14.6914 24.0251 14.5358 25.4411 14.2604 27.9476L14.2566 27.9821C14.2566 27.9821 14.101 35.9703 14.101 40.2209C14.101 44.4715 20.969 44.4715 20.969 40.2209V28.2134L27.3346 25.7783L20.7399 53.4658C20.7399 53.4658 9.46632 51.6708 4.6364 50.717C-0.193514 49.7631 -2.18747 56.6655 3.29629 57.7703Z" fill="#2CDE85"/>
</svg>
