<svg width="44" height="78" viewBox="0 0 44 78" fill="none" xmlns="http://www.w3.org/2000/svg">
<path fill-rule="evenodd" clip-rule="evenodd" d="M15.4523 11.7338C16.8354 13.1207 18.4676 13.8142 20.3487 13.8142C22.1745 13.8142 23.7651 13.1069 25.1206 11.6922C26.4761 10.2774 27.1539 8.6547 27.1539 6.82389C27.1539 4.99308 26.4899 3.39808 25.1621 2.03885C23.8342 0.679608 22.2298 0 20.3487 0C18.4676 0 16.8354 0.665739 15.4523 1.99724C14.0691 3.32873 13.3775 4.9376 13.3775 6.82389C13.3775 8.71018 14.0691 10.3468 15.4523 11.7338ZM6.46298 74.2821C8.09671 71.3108 15.6242 57.4448 15.6242 57.4448L19.3587 47.5488L26.6618 54.3727V75.1772C26.6618 78.9409 33.633 78.9409 33.633 75.1772C33.633 74.1667 33.655 71.868 33.6822 69.0347C33.7258 64.485 33.7827 58.5571 33.7827 54.3727C33.7827 49.7233 31.3134 47.5488 31.3134 47.5488L26.3298 42.3061L26.6618 29.7128C26.6618 29.7128 37.8363 39.6174 41.0335 39.6174C44.2307 39.6174 45.4782 34.17 41.5273 32.6843C37.5765 31.1987 32.4711 25.2463 32.4711 25.2463L29.0685 19.7539C27.5194 17.4793 26.6618 17.3324 26.6618 17.3324C26.0683 16.2311 13.2224 16.1882 12.8837 17.3324L5.96968 22.2847C3.15235 23.7051 2.95593 25.618 2.72317 27.8848C2.70477 28.064 2.68614 28.2455 2.66596 28.429C2.66596 28.429 2.51175 36.3458 2.51175 40.5585C2.51175 44.7711 9.31693 44.7711 9.31693 40.5585V28.6583L12.8837 26.7415V42.3061L9.0899 53.685C9.0899 53.685 3.00484 65.4635 0.536321 70.3204C-1.93219 75.1772 4.82925 77.2534 6.46298 74.2821Z" fill="#19545C"/>
</svg>
