<svg width="24" height="24" viewBox="0 0 24 24" fill="none" xmlns="http://www.w3.org/2000/svg">
<path d="M17.92 13.02C17.45 10.18 14.97 8 12 8C9.82 8 7.83 9.18 6.78 11.06C4.09 11.41 2 13.74 2 16.5C2 19.53 4.47 22 7.5 22H17.5C19.98 22 22 19.98 22 17.5C22 15.16 20.21 13.23 17.92 13.02ZM17.5 20H7.5C5.57 20 4 18.43 4 16.5C4 14.76 5.31 13.27 7.04 13.04L8.03 12.91L8.52 12.04C9.23 10.78 10.56 10 12 10C13.94 10 15.63 11.44 15.95 13.35L16.2 14.87L17.74 15.01C19.01 15.13 20 16.22 20 17.5C20 18.88 18.88 20 17.5 20Z" fill="#333"/>
<path d="M20 9C20 6.23858 17.6959 4 14.8536 4C13.1699 4 11.675 4.78555 10.7361 6" stroke="#333" stroke-width="2"/>
<path d="M20 8C21.6569 8 23 9.34315 23 11C23 11.8217 22.6696 12.5663 22.1345 13.1081" stroke="#333" stroke-width="2"/>
</svg> 
