<svg width="40" height="40" viewBox="0 0 40 40" fill="none" xmlns="http://www.w3.org/2000/svg">
<path fill-rule="evenodd" clip-rule="evenodd" d="M11 20C11 19.4477 11.4477 19 12 19H27C27.5523 19 28 19.4477 28 20C28 20.5523 27.5523 21 27 21H12C11.4477 21 11 20.5523 11 20Z" fill="#191919"/>
<path fill-rule="evenodd" clip-rule="evenodd" d="M19.7058 12.2929C20.0981 12.6834 20.0981 13.3166 19.7058 13.7071L13.3838 20L19.7058 26.2929C20.0981 26.6834 20.0981 27.3166 19.7058 27.7071C19.3134 28.0976 18.6773 28.0976 18.285 27.7071L11.3237 20.7778C10.8921 20.3482 10.8921 19.6518 11.3237 19.2222L18.285 12.2929C18.6773 11.9024 19.3134 11.9024 19.7058 12.2929Z" fill="#191919"/>
</svg>
