<svg width="32" height="32" viewBox="0 0 32 32" fill="none" xmlns="http://www.w3.org/2000/svg">
<path fill-rule="evenodd" clip-rule="evenodd" d="M17.3334 2.66671C17.3334 1.93033 16.7365 1.33337 16.0001 1.33337C15.2637 1.33337 14.6667 1.93033 14.6667 2.66671V4.11031C12.9044 4.40383 11.2703 5.27349 10.0063 6.60077C8.43031 8.25552 7.55565 10.4866 7.55565 12.8C7.55565 16.9696 6.70611 19.5542 5.928 21.0521C5.53753 21.8037 5.15882 22.2939 4.89904 22.5819C4.7688 22.7262 4.66748 22.8208 4.6082 22.8726C4.57854 22.8986 4.55933 22.9139 4.55223 22.9195L4.5513 22.9202C4.08705 23.2564 3.88898 23.8527 4.06178 24.4009C4.23674 24.9559 4.75147 25.3334 5.33343 25.3334H26.6668C27.2487 25.3334 27.7635 24.9559 27.9384 24.4009C28.1112 23.8527 27.9131 23.2564 27.4489 22.9202L27.448 22.9195C27.4409 22.9139 27.4217 22.8986 27.392 22.8726C27.3327 22.8208 27.2314 22.7262 27.1012 22.5819C26.8414 22.2939 26.4627 21.8037 26.0722 21.0521C25.2941 19.5542 24.4445 16.9696 24.4445 12.8C24.4445 10.4866 23.5699 8.25552 21.9939 6.60077C20.7298 5.27348 19.0958 4.40382 17.3334 4.11031V2.66671ZM23.9148 22.6667C23.8451 22.5437 23.7753 22.4153 23.7058 22.2814C22.7061 20.357 21.7779 17.3416 21.7779 12.8C21.7779 11.153 21.1541 9.58564 20.0629 8.43985C18.9738 7.29627 17.5109 6.66671 16.0001 6.66671C14.4893 6.66671 13.0264 7.29627 11.9373 8.43985C10.8461 9.58564 10.2223 11.153 10.2223 12.8C10.2223 17.3416 9.29408 20.357 8.29442 22.2814C8.22485 22.4153 8.15506 22.5437 8.08535 22.6667H23.9148ZM12.5926 26.9581C13.2049 26.549 14.0329 26.7136 14.442 27.3259C14.575 27.525 14.7812 27.7121 15.0577 27.8503C15.3345 27.9887 15.6601 28.0667 16.0001 28.0667C16.3401 28.0667 16.6657 27.9887 16.9425 27.8503C17.219 27.7121 17.4252 27.525 17.5582 27.3259C17.9673 26.7136 18.7953 26.549 19.4076 26.9581C20.0198 27.3673 20.1845 28.1953 19.7754 28.8075C19.3664 29.4195 18.7946 29.9057 18.1351 30.2354C17.4759 30.565 16.7403 30.7334 16.0001 30.7334C15.2599 30.7334 14.5243 30.565 13.8651 30.2354C13.2056 29.9057 12.6338 29.4195 12.2248 28.8075C11.8157 28.1953 11.9804 27.3673 12.5926 26.9581Z" fill="#E6E6E6"/>
<path d="M3.99984 13.4C3.26346 13.4 2.65914 12.8016 2.72771 12.0684C2.88779 10.357 3.36183 8.76192 4.14984 7.28329C4.92622 5.82649 5.91149 4.56487 7.10564 3.49845C7.65054 3.01184 8.48356 3.14375 8.91597 3.73257V3.73257C9.3488 4.32196 9.21456 5.1448 8.68174 5.64562C7.81466 6.46063 7.09292 7.41208 6.5165 8.49996C5.92856 9.6096 5.55971 10.7995 5.40995 12.0696C5.32372 12.8009 4.73622 13.4 3.99984 13.4V13.4ZM27.9998 13.4C27.2635 13.4 26.676 12.8009 26.5897 12.0696C26.44 10.7995 26.0711 9.6096 25.4832 8.49996C24.9068 7.41208 24.185 6.46063 23.3179 5.64562C22.7851 5.1448 22.6509 4.32196 23.0837 3.73257V3.73257C23.5161 3.14375 24.3491 3.01184 24.894 3.49845C26.0882 4.56487 27.0735 5.82649 27.8498 7.28329C28.6378 8.76192 29.1119 10.357 29.272 12.0684C29.3405 12.8016 28.7362 13.4 27.9998 13.4V13.4Z" fill="#E6E6E6"/>
</svg>
