<svg width="32" height="32" viewBox="0 0 32 32" fill="none" xmlns="http://www.w3.org/2000/svg">
<path fill-rule="evenodd" clip-rule="evenodd" d="M17.3333 2.66732C17.3333 1.93094 16.7364 1.33398 16 1.33398C15.2636 1.33398 14.6667 1.93094 14.6667 2.66732V4.11092C12.9043 4.40444 11.2703 5.2741 10.0062 6.60138C8.43022 8.25613 7.55556 10.4872 7.55556 12.8007C7.55556 16.9702 6.70602 19.5548 5.92791 21.0527C5.53744 21.8043 5.15873 22.2945 4.89895 22.5825C4.76871 22.7268 4.66739 22.8214 4.60811 22.8733C4.57845 22.8992 4.55924 22.9145 4.55214 22.9201L4.55121 22.9208C4.08696 23.257 3.88888 23.8533 4.06169 24.4015C4.23665 24.9565 4.75138 25.334 5.33334 25.334H26.6667C27.2486 25.334 27.7634 24.9565 27.9383 24.4015C28.1111 23.8533 27.9131 23.257 27.4488 22.9208L27.4479 22.9201C27.4408 22.9145 27.4216 22.8992 27.3919 22.8733C27.3326 22.8214 27.2313 22.7268 27.1011 22.5825C26.8413 22.2945 26.4626 21.8043 26.0721 21.0527C25.294 19.5548 24.4445 16.9702 24.4445 12.8007C24.4445 10.4872 23.5698 8.25613 21.9938 6.60138C20.7298 5.27409 19.0957 4.40443 17.3333 4.11092V2.66732ZM23.9148 22.6673C23.845 22.5443 23.7753 22.4159 23.7057 22.282C22.706 20.3576 21.7778 17.3422 21.7778 12.8007C21.7778 11.1536 21.154 9.58625 20.0628 8.44046C18.9737 7.29688 17.5108 6.66732 16 6.66732C14.4892 6.66732 13.0263 7.29688 11.9372 8.44046C10.846 9.58625 10.2222 11.1536 10.2222 12.8007C10.2222 17.3422 9.29399 20.3576 8.29432 22.282C8.22476 22.4159 8.15497 22.5443 8.08526 22.6673H23.9148ZM12.5925 26.9587C13.2048 26.5496 14.0328 26.7143 14.4419 27.3265C14.575 27.5256 14.7811 27.7127 15.0576 27.8509C15.3344 27.9893 15.66 28.0673 16 28.0673C16.34 28.0673 16.6656 27.9893 16.9424 27.8509C17.2189 27.7127 17.4251 27.5256 17.5581 27.3265C17.9672 26.7143 18.7952 26.5496 19.4075 26.9587C20.0197 27.3679 20.1844 28.1959 19.7753 28.8081C19.3663 29.4202 18.7945 29.9063 18.135 30.2361C17.4758 30.5657 16.7402 30.734 16 30.734C15.2598 30.734 14.5242 30.5657 13.865 30.2361C13.2055 29.9063 12.6337 29.4202 12.2247 28.8081C11.8156 28.1959 11.9803 27.3679 12.5925 26.9587Z" fill="#191919"/>
<path d="M3.99999 13.3994C3.26361 13.3994 2.65929 12.801 2.72787 12.0678C2.88794 10.3563 3.36198 8.7613 4.14999 7.28268C4.92637 5.82588 5.91164 4.56426 7.1058 3.49784C7.65069 3.01123 8.48371 3.14314 8.91613 3.73196C9.34896 4.32135 9.21471 5.14419 8.68189 5.64501C7.81482 6.46002 7.09307 7.41147 6.51666 8.49935C5.92872 9.60899 5.55986 10.7989 5.4101 12.0689C5.32387 12.8003 4.73637 13.3994 3.99999 13.3994ZM28 13.3994C27.2636 13.3994 26.6761 12.8003 26.5899 12.0689C26.4401 10.7989 26.0713 9.60899 25.4833 8.49935C24.9069 7.41147 24.1852 6.46002 23.3181 5.64501C22.7853 5.14419 22.651 4.32135 23.0839 3.73196C23.5163 3.14314 24.3493 3.01123 24.8942 3.49784C26.0883 4.56426 27.0736 5.82588 27.85 7.28268C28.638 8.7613 29.112 10.3563 29.2721 12.0678C29.3407 12.801 28.7364 13.3994 28 13.3994Z" fill="#191919"/>
</svg>
