<svg width="40" height="40" viewBox="0 0 40 40" fill="none" xmlns="http://www.w3.org/2000/svg">
<path fill-rule="evenodd" clip-rule="evenodd" d="M18.6445 3.74032C19.1541 3.52925 19.7406 3.64592 20.1306 4.03591L27.6306 11.5359C28.1631 12.0684 28.1631 12.9319 27.6306 13.4644L21.0948 20.0002L27.6306 26.5359C28.1631 27.0685 28.1631 27.9319 27.6306 28.4644L20.1306 35.9644C19.7406 36.3544 19.1541 36.4711 18.6445 36.26C18.135 36.0489 17.8027 35.5517 17.8027 35.0002V23.2923L12.6306 28.4644C12.0981 28.9969 11.2347 28.9969 10.7021 28.4644C10.1696 27.9319 10.1696 27.0685 10.7021 26.5359L17.2379 20.0002L10.7021 13.4644C10.1696 12.9319 10.1696 12.0684 10.7021 11.5359C11.2347 11.0034 12.0981 11.0034 12.6306 11.5359L17.8027 16.708V5.00015C17.8027 4.44861 18.135 3.95138 18.6445 3.74032ZM20.53 23.2923L24.7379 27.5002L20.53 31.708V23.2923ZM20.53 16.708V8.29226L24.7379 12.5002L20.53 16.708Z" fill="#E6E6E6"/>
</svg>
