<svg width="40" height="40" viewBox="0 0 40 40" fill="none" xmlns="http://www.w3.org/2000/svg">
<path fill-rule="evenodd" clip-rule="evenodd" d="M18.6449 3.74056C19.1545 3.52949 19.741 3.64616 20.131 4.03616L27.631 11.5362C28.1635 12.0687 28.1635 12.9321 27.631 13.4646L21.0952 20.0004L27.631 26.5362C28.1635 27.0687 28.1635 27.9321 27.631 28.4646L20.131 35.9646C19.741 36.3546 19.1545 36.4713 18.6449 36.2602C18.1353 36.0492 17.8031 35.5519 17.8031 35.0004V23.2925L12.631 28.4646C12.0984 28.9972 11.235 28.9972 10.7025 28.4646C10.17 27.9321 10.17 27.0687 10.7025 26.5362L17.2383 20.0004L10.7025 13.4646C10.17 12.9321 10.17 12.0687 10.7025 11.5362C11.235 11.0036 12.0984 11.0036 12.631 11.5362L17.8031 16.7083V5.0004C17.8031 4.44886 18.1353 3.95162 18.6449 3.74056ZM20.5304 23.2925L24.7383 27.5004L20.5304 31.7083V23.2925ZM20.5304 16.7083V8.29251L24.7383 12.5004L20.5304 16.7083Z" fill="#191919"/>
</svg>
