<svg width="32" height="32" viewBox="0 0 32 32" fill="none" xmlns="http://www.w3.org/2000/svg">
<path fill-rule="evenodd" clip-rule="evenodd" d="M6.66667 17.334C6.66667 12.1793 10.8453 8.00065 16 8.00065C21.1547 8.00065 25.3333 12.1793 25.3333 17.334C25.3333 22.4886 21.1547 26.6673 16 26.6673C10.8453 26.6673 6.66667 22.4886 6.66667 17.334ZM16 5.33398C9.37258 5.33398 4 10.7066 4 17.334C4 23.9614 9.37258 29.334 16 29.334C22.6274 29.334 28 23.9614 28 17.334C28 10.7066 22.6274 5.33398 16 5.33398ZM17.3333 12.0007C17.3333 11.2643 16.7364 10.6673 16 10.6673C15.2636 10.6673 14.6667 11.2643 14.6667 12.0007V18.0007C14.6667 18.5057 14.952 18.9674 15.4037 19.1932L19.4037 21.1932C20.0624 21.5225 20.8633 21.2556 21.1926 20.5969C21.5219 19.9383 21.2549 19.1374 20.5963 18.8081L17.3333 17.1766V12.0007Z" fill="#191919"/>
<path fill-rule="evenodd" clip-rule="evenodd" d="M1.72384 8.38987C1.20314 8.91057 1.20314 9.75479 1.72384 10.2755C2.24454 10.7962 3.08876 10.7962 3.60946 10.2755L8.94279 4.94216C9.46349 4.42146 9.46349 3.57724 8.94279 3.05654C8.42209 2.53584 7.57787 2.53584 7.05717 3.05654L1.72384 8.38987ZM24.9428 3.05654C24.4221 2.53584 23.5779 2.53584 23.0572 3.05654C22.5365 3.57724 22.5365 4.42146 23.0572 4.94216L28.3905 10.2755C28.9112 10.7962 29.7554 10.7962 30.2761 10.2755C30.7968 9.75479 30.7968 8.91057 30.2761 8.38987L24.9428 3.05654Z" fill="#191919"/>
</svg>
