<svg width="32" height="32" viewBox="0 0 32 32" fill="none" xmlns="http://www.w3.org/2000/svg">
<path fill-rule="evenodd" clip-rule="evenodd" d="M6.66667 17.3334C6.66667 12.1787 10.8453 8.00004 16 8.00004C21.1547 8.00004 25.3333 12.1787 25.3333 17.3334C25.3333 22.488 21.1547 26.6667 16 26.6667C10.8453 26.6667 6.66667 22.488 6.66667 17.3334ZM16 5.33337C9.37258 5.33337 4 10.706 4 17.3334C4 23.9608 9.37258 29.3334 16 29.3334C22.6274 29.3334 28 23.9608 28 17.3334C28 10.706 22.6274 5.33337 16 5.33337ZM17.3333 12C17.3333 11.2637 16.7364 10.6667 16 10.6667C15.2636 10.6667 14.6667 11.2637 14.6667 12V18C14.6667 18.5051 14.952 18.9668 15.4037 19.1926L19.4037 21.1926C20.0624 21.5219 20.8633 21.255 21.1926 20.5963C21.5219 19.9377 21.2549 19.1368 20.5963 18.8075L17.3333 17.176V12Z" fill="#E6E6E6"/>
<path fill-rule="evenodd" clip-rule="evenodd" d="M1.72353 8.39048C1.20283 8.91118 1.20283 9.7554 1.72353 10.2761C2.24423 10.7968 3.08845 10.7968 3.60915 10.2761L8.94248 4.94277C9.46318 4.42207 9.46318 3.57785 8.94248 3.05715C8.42178 2.53645 7.57756 2.53645 7.05686 3.05715L1.72353 8.39048ZM24.9425 3.05715C24.4218 2.53645 23.5776 2.53645 23.0569 3.05715C22.5362 3.57785 22.5362 4.42207 23.0569 4.94277L28.3902 10.2761C28.9109 10.7968 29.7551 10.7968 30.2758 10.2761C30.7965 9.7554 30.7965 8.91118 30.2758 8.39048L24.9425 3.05715Z" fill="#E6E6E6"/>
</svg>
