<svg width="40" height="40" viewBox="0 0 40 40" fill="none" xmlns="http://www.w3.org/2000/svg">
<path fill-rule="evenodd" clip-rule="evenodd" d="M19.9997 33.3334C27.3635 33.3334 33.333 27.3638 33.333 20C33.333 12.6362 27.3635 6.66671 19.9997 6.66671C12.6359 6.66671 6.66634 12.6362 6.66634 20C6.66634 27.3638 12.6359 33.3334 19.9997 33.3334ZM19.9997 36.6667C29.2044 36.6667 36.6663 29.2048 36.6663 20C36.6663 10.7953 29.2044 3.33337 19.9997 3.33337C10.7949 3.33337 3.33301 10.7953 3.33301 20C3.33301 29.2048 10.7949 36.6667 19.9997 36.6667Z" fill="#E6E6E6"/>
<path d="M19.9997 3.33337C10.7949 3.33337 3.33301 10.7953 3.33301 20C3.33301 29.2048 10.7949 36.6667 19.9997 36.6667V3.33337Z" fill="#E6E6E6"/>
</svg>
