<svg width="40" height="40" viewBox="0 0 40 40" fill="none" xmlns="http://www.w3.org/2000/svg">
<path fill-rule="evenodd" clip-rule="evenodd" d="M19.9997 33.3333C27.3635 33.3333 33.333 27.3638 33.333 20C33.333 12.6362 27.3635 6.66665 19.9997 6.66665C12.6359 6.66665 6.66634 12.6362 6.66634 20C6.66634 27.3638 12.6359 33.3333 19.9997 33.3333ZM19.9997 36.6666C29.2044 36.6666 36.6663 29.2047 36.6663 20C36.6663 10.7952 29.2044 3.33331 19.9997 3.33331C10.7949 3.33331 3.33301 10.7952 3.33301 20C3.33301 29.2047 10.7949 36.6666 19.9997 36.6666Z" fill="#191919"/>
<path d="M19.9997 3.33331C10.7949 3.33331 3.33301 10.7952 3.33301 20C3.33301 29.2047 10.7949 36.6666 19.9997 36.6666V3.33331Z" fill="#191919"/>
</svg>
