<svg width="40" height="40" viewBox="0 0 40 40" fill="none" xmlns="http://www.w3.org/2000/svg">
<path fill-rule="evenodd" clip-rule="evenodd" d="M21.2804 23.9331C20.9637 23.5531 20.4947 23.3334 20 23.3334C19.5054 23.3334 19.0363 23.5531 18.7197 23.9331L10.3863 33.9331C9.97231 34.4299 9.88307 35.1213 10.1574 35.707C10.4317 36.2926 11.02 36.6667 11.6667 36.6667H28.3334C28.9801 36.6667 29.5684 36.2926 29.8427 35.707C30.117 35.1213 30.0277 34.4299 29.6137 33.9331L21.2804 23.9331Z" fill="#E6E6E6"/>
<path d="M6.66634 8.33333H33.333V25H28.333V28.3333H33.333C35.174 28.3333 36.6663 26.841 36.6663 25V8.33333C36.6663 6.49238 35.174 5 33.333 5H6.66634C4.82539 5 3.33301 6.49238 3.33301 8.33333V25C3.33301 26.841 4.82539 28.3333 6.66634 28.3333H11.6663V25H6.66634V8.33333Z" fill="#E6E6E6"/>
</svg>
