<svg width="40" height="40" viewBox="0 0 40 40" fill="none" xmlns="http://www.w3.org/2000/svg">
<path fill-rule="evenodd" clip-rule="evenodd" d="M21.2804 23.933C20.9637 23.553 20.4947 23.3333 20 23.3333C19.5054 23.3333 19.0363 23.553 18.7197 23.933L10.3863 33.933C9.97231 34.4298 9.88307 35.1213 10.1574 35.7069C10.4317 36.2925 11.02 36.6666 11.6667 36.6666H28.3334C28.9801 36.6666 29.5684 36.2925 29.8427 35.7069C30.117 35.1213 30.0277 34.4298 29.6137 33.933L21.2804 23.933Z" fill="#191919"/>
<path d="M6.66634 8.33333H33.333V25H28.333V28.3333H33.333C35.174 28.3333 36.6663 26.841 36.6663 25V8.33333C36.6663 6.49238 35.174 5 33.333 5H6.66634C4.82539 5 3.33301 6.49238 3.33301 8.33333V25C3.33301 26.841 4.82539 28.3333 6.66634 28.3333H11.6663V25H6.66634V8.33333Z" fill="#191919"/>
</svg>
