<svg width="24" height="24" viewBox="0 0 24 24" fill="none" xmlns="http://www.w3.org/2000/svg">
<path d="M12 22C9.78333 22 7.89583 21.2125 6.3375 19.6375C4.77917 18.0626 4 16.1598 4 13.9293C4 12.8056 4.20833 11.767 4.625 10.8135C5.04167 9.85997 5.61667 9.00863 6.35 8.25946L11.2992 3.2928C11.6883 2.9024 12.3117 2.9024 12.7008 3.2928L17.65 8.25946C18.3833 9.00863 18.9583 9.85997 19.375 10.8135C19.7917 11.767 20 12.8056 20 13.9293C20 16.1598 19.2208 18.0626 17.6625 19.6375C16.1042 21.2125 14.2167 22 12 22ZM12 20C13.6667 20 15.2086 19.5829 16.5 18.1818C17.7097 16.8692 17.9963 15.63 18 13.8272C18.0018 12.9638 17.9569 12.4528 17.6625 11.6435C17.3638 10.8225 16.5 9.74078 16.5 9.74078L12 5.45005L7.75 9.74078C7.16667 10.3027 6.72917 10.9369 6.4375 11.6435C6.14583 12.3501 6 13.1121 6 13.9293C6 15.5809 6.58333 16.9984 7.75 18.1818C8.91667 19.3651 10.3333 20 12 20Z" fill="#191919"/>
<path d="M12.7846 18.7537C12.641 18.8951 12.4678 18.9741 12.265 18.9907C11.1837 19.0573 10.1109 18.7661 9.04646 18.1173C7.98205 17.4685 7.30623 16.3872 7.01901 14.8734C6.96832 14.6405 7.01901 14.4367 7.17107 14.262C7.32313 14.0873 7.51742 14 7.75396 14C7.93981 14 8.10454 14.0582 8.24815 14.1747C8.39176 14.2911 8.48046 14.4408 8.51426 14.6238C8.717 15.7384 9.20697 16.5078 9.98416 16.932C10.7614 17.3563 11.4963 17.5434 12.189 17.4935C12.4256 17.4769 12.6199 17.5392 12.7719 17.6807C12.924 17.8221 13 18.0092 13 18.2421C13 18.4417 12.9282 18.6123 12.7846 18.7537Z" fill="#191919"/>
</svg>
