<svg width="24" height="24" viewBox="0 0 24 24" fill="none" xmlns="http://www.w3.org/2000/svg">
<path fill-rule="evenodd" clip-rule="evenodd" d="M12 5C11.4477 5 11 5.55964 11 6.25V18.75C11 19.4404 11.4477 20 12 20C12.5523 20 13 19.4404 13 18.75L12.9999 6.25C13 5.625 12.5527 5 12 5Z" fill="#2CDE85"/>
<path fill-rule="evenodd" clip-rule="evenodd" d="M5.82428 10.7372C6.2314 11.1103 6.86397 11.0828 7.23716 10.6757L12 5.47989L16.7629 10.6757C17.136 11.0828 17.7686 11.1103 18.1757 10.7372C18.5828 10.364 18.6104 9.7314 18.2372 9.32428L12.7372 3.32428C12.5477 3.11765 12.2803 3 12 3C11.7197 3 11.4523 3.11765 11.2629 3.32428L5.76285 9.32428C5.38966 9.73139 5.41716 10.364 5.82428 10.7372Z" fill="#2CDE85"/>
</svg>
