<svg width="32" height="32" viewBox="0 0 32 32" fill="none" xmlns="http://www.w3.org/2000/svg">
<path d="M16.6604 27.4192C16.2828 27.7513 15.7172 27.7513 15.3396 27.4192L14.0667 26.2997C11.8222 24.3161 9.96666 22.6049 8.49999 21.1662C7.03332 19.7275 5.86666 18.436 4.99999 17.2916C4.13332 16.1471 3.52777 15.0954 3.18332 14.1362C2.83888 13.1771 2.66666 12.1962 2.66666 11.1935C2.66666 9.14441 3.36666 7.43324 4.76666 6.05995C6.16666 4.68665 7.9111 4 9.99999 4C11.1555 4 12.2555 4.23978 13.3 4.71935C14.3444 5.19891 15.2444 5.87466 16 6.74659C16.7555 5.87466 17.6555 5.19891 18.7 4.71935C19.7444 4.23978 20.8444 4 22 4C24.0889 4 25.8333 4.68665 27.2333 6.05995C28.6333 7.43324 29.3333 9.14441 29.3333 11.1935C29.3333 12.1962 29.1611 13.1771 28.8167 14.1362C28.4722 15.0954 27.8667 16.1471 27 17.2916C26.1333 18.436 24.9667 19.7275 23.5 21.1662C22.0333 22.6049 20.1778 24.3161 17.9333 26.2997L16.6604 27.4192ZM16 24.4687C18.1333 22.594 19.8889 20.9864 21.2667 19.6458C22.6444 18.3052 23.7333 17.139 24.5333 16.1471C25.3333 15.1553 25.8889 14.2725 26.2 13.4986C26.5111 12.7248 26.6667 11.9564 26.6667 11.1935C26.6667 9.88556 26.2222 8.79564 25.3333 7.92371C24.4444 7.05177 23.3333 6.6158 22 6.6158C20.9555 6.6158 19.9889 6.90463 19.1 7.48229C18.6081 7.80193 18.2013 8.16996 17.8796 8.58638C17.4139 9.18908 16.7616 9.68937 16 9.68937C15.2383 9.68937 14.5861 9.18908 14.1204 8.58638C13.7987 8.16996 13.3918 7.80193 12.9 7.48229C12.0111 6.90463 11.0444 6.6158 9.99999 6.6158C8.66666 6.6158 7.55555 7.05177 6.66666 7.92371C5.77777 8.79564 5.33332 9.88556 5.33332 11.1935C5.33332 11.9564 5.48888 12.7248 5.79999 13.4986C6.1111 14.2725 6.66666 15.1553 7.46666 16.1471C8.26666 17.139 9.35555 18.3052 10.7333 19.6458C12.1111 20.9864 13.8667 22.594 16 24.4687Z" fill="#191919"/>
</svg>
