<svg width="32" height="32" viewBox="0 0 32 32" fill="none" xmlns="http://www.w3.org/2000/svg">
<path d="M16.6602 27.4192C16.2826 27.7513 15.7171 27.7513 15.3394 27.4192L14.0665 26.2997C11.8221 24.3161 9.9665 22.6049 8.49984 21.1662C7.03317 19.7275 5.8665 18.436 4.99984 17.2916C4.13317 16.1471 3.52762 15.0954 3.18317 14.1362C2.83873 13.1771 2.6665 12.1962 2.6665 11.1935C2.6665 9.14441 3.3665 7.43324 4.7665 6.05995C6.1665 4.68665 7.91095 4 9.99984 4C11.1554 4 12.2554 4.23978 13.2998 4.71935C14.3443 5.19891 15.2443 5.87466 15.9998 6.74659C16.7554 5.87466 17.6554 5.19891 18.6998 4.71935C19.7443 4.23978 20.8443 4 21.9998 4C24.0887 4 25.8332 4.68665 27.2332 6.05995C28.6332 7.43324 29.3332 9.14441 29.3332 11.1935C29.3332 12.1962 29.161 13.1771 28.8165 14.1362C28.4721 15.0954 27.8665 16.1471 26.9998 17.2916C26.1332 18.436 24.9665 19.7275 23.4998 21.1662C22.0332 22.6049 20.1776 24.3161 17.9332 26.2997L16.6602 27.4192ZM15.9998 24.4687C18.1332 22.594 19.8887 20.9864 21.2665 19.6458C22.6443 18.3052 23.7332 17.139 24.5332 16.1471C25.3332 15.1553 25.8887 14.2725 26.1998 13.4986C26.5109 12.7248 26.6665 11.9564 26.6665 11.1935C26.6665 9.88556 26.2221 8.79564 25.3332 7.92371C24.4443 7.05177 23.3332 6.6158 21.9998 6.6158C20.9554 6.6158 19.9887 6.90463 19.0998 7.48229C18.608 7.80193 18.2012 8.16996 17.8794 8.58638C17.4137 9.18908 16.7615 9.68937 15.9998 9.68937V9.68937C15.2382 9.68937 14.5859 9.18908 14.1203 8.58638C13.7985 8.16996 13.3917 7.80193 12.8998 7.48229C12.0109 6.90463 11.0443 6.6158 9.99984 6.6158C8.6665 6.6158 7.55539 7.05177 6.6665 7.92371C5.77762 8.79564 5.33317 9.88556 5.33317 11.1935C5.33317 11.9564 5.48873 12.7248 5.79984 13.4986C6.11095 14.2725 6.6665 15.1553 7.4665 16.1471C8.2665 17.139 9.35539 18.3052 10.7332 19.6458C12.1109 20.9864 13.8665 22.594 15.9998 24.4687Z" fill="#E6E6E6"/>
</svg>
