<svg width="24" height="24" viewBox="0 0 24 24" fill="none" xmlns="http://www.w3.org/2000/svg">
<path fill-rule="evenodd" clip-rule="evenodd" d="M6 9.5C6 8.94772 6.44772 8.5 7 8.5H19C19.5523 8.5 20 8.94772 20 9.5V19.5C20 20.0523 19.5523 20.5 19 20.5C18.4477 20.5 18 20.0523 18 19.5V10.5003L7 10.5C6.44772 10.5 6 10.0523 6 9.5Z" fill="#2CDE85"/>
<path fill-rule="evenodd" clip-rule="evenodd" d="M12.7372 3.32428C13.1103 3.7314 13.0828 4.36397 12.6757 4.73716L7.47989 9.50001L12.6757 14.2629C13.0828 14.636 13.1103 15.2686 12.7372 15.6757C12.364 16.0828 11.7314 16.1104 11.3243 15.7372L5.32428 10.2372C5.11765 10.0477 5 9.78031 5 9.50001C5 9.2197 5.11765 8.95226 5.32428 8.76285L11.3243 3.26285C11.7314 2.88966 12.364 2.91716 12.7372 3.32428Z" fill="#2CDE85"/>
</svg>
