<svg width="24" height="24" viewBox="0 0 24 24" fill="none" xmlns="http://www.w3.org/2000/svg">
<path d="M12.0005 19.9999C12.0005 20.5522 12.4482 20.9999 13.0005 20.9999C13.5528 20.9999 14.0005 20.5522 14.0005 19.9999H12.0005ZM7.17889 3.01613C6.63551 2.91733 6.11493 3.27774 6.01613 3.82111L4.40616 12.6759C4.30737 13.2193 4.66777 13.7399 5.21115 13.8387C5.75452 13.9375 6.27511 13.5771 6.3739 13.0337L7.80498 5.16276L15.6759 6.59384C16.2193 6.69263 16.7399 6.33223 16.8387 5.78885C16.9375 5.24548 16.5771 4.72489 16.0337 4.6261L7.17889 3.01613ZM14.0005 19.9999C14.0005 15.9397 13.6211 13.4098 12.6069 11.0435C11.6181 8.73658 10.0317 6.62227 7.82219 3.43079L6.17781 4.56921C8.46832 7.87773 9.88218 9.76337 10.7686 11.8314C11.6296 13.8401 12.0005 16.0601 12.0005 19.9999H14.0005Z" fill="#2CDE85"/>
</svg>
