<svg width="24" height="24" viewBox="0 0 24 24" fill="none" xmlns="http://www.w3.org/2000/svg">
<path d="M11.9995 19.9999C11.9995 20.5522 11.5518 20.9999 10.9995 20.9999C10.4472 20.9999 9.99953 20.5522 9.99953 19.9999H11.9995ZM16.8211 3.01613C17.3645 2.91733 17.8851 3.27774 17.9839 3.82111L19.5938 12.6759C19.6926 13.2193 19.3322 13.7399 18.7889 13.8387C18.2455 13.9375 17.7249 13.5771 17.6261 13.0337L16.195 5.16276L8.32406 6.59384C7.78068 6.69263 7.2601 6.33223 7.1613 5.78885C7.0625 5.24548 7.42291 4.72489 7.96629 4.6261L16.8211 3.01613ZM9.99953 19.9999C9.99953 15.9397 10.3789 13.4098 11.3931 11.0435C12.3819 8.73658 13.9683 6.62227 16.1778 3.43079L17.8222 4.56921C15.5317 7.87773 14.1178 9.76337 13.2314 11.8314C12.3704 13.8401 11.9995 16.0601 11.9995 19.9999H9.99953Z" fill="#191919"/>
</svg>
