<svg width="32" height="32" viewBox="0 0 32 32" fill="none" xmlns="http://www.w3.org/2000/svg">
<path fill-rule="evenodd" clip-rule="evenodd" d="M19.3772 22.8242C21.9333 20.0647 24.0002 16.7686 24.0002 13.5757C24.0002 11.3706 23.1431 9.26753 21.6359 7.72614C20.1308 6.18679 18.1023 5.33329 16.0002 5.33329C13.898 5.33329 11.8695 6.18679 10.3644 7.72614C8.85724 9.26753 8.00016 11.3706 8.00016 13.5757C8.00016 16.7686 10.067 20.0647 12.6231 22.8242C13.8427 24.1407 15.0707 25.2246 16.0002 25.9826C16.9296 25.2246 18.1577 24.1407 19.3772 22.8242ZM16.0002 29.3333C16.0002 29.3333 26.6668 22.0606 26.6668 13.5757C26.6668 10.6824 25.543 7.90768 23.5426 5.86182C21.5422 3.81597 18.8291 2.66663 16.0002 2.66663C13.1712 2.66663 10.4581 3.81597 8.45769 5.86182C6.4573 7.90768 5.3335 10.6824 5.3335 13.5757C5.3335 22.0606 16.0002 29.3333 16.0002 29.3333Z" fill="#E6E6E6"/>
<path fill-rule="evenodd" clip-rule="evenodd" d="M16 12C15.2636 12 14.6667 12.597 14.6667 13.3334C14.6667 14.0698 15.2636 14.6667 16 14.6667C16.7364 14.6667 17.3333 14.0698 17.3333 13.3334C17.3333 12.597 16.7364 12 16 12ZM12 13.3334C12 11.1242 13.7909 9.33337 16 9.33337C18.2091 9.33337 20 11.1242 20 13.3334C20 15.5425 18.2091 17.3334 16 17.3334C13.7909 17.3334 12 15.5425 12 13.3334Z" fill="#E6E6E6"/>
</svg>
