<svg width="32" height="32" viewBox="0 0 32 32" fill="none" xmlns="http://www.w3.org/2000/svg">
<path fill-rule="evenodd" clip-rule="evenodd" d="M19.377 22.8235C21.9332 20.0641 24 16.768 24 13.5751C24 11.37 23.1429 9.26692 21.6358 7.72553C20.1307 6.18618 18.1022 5.33268 16 5.33268C13.8979 5.33268 11.8694 6.18618 10.3642 7.72553C8.85709 9.26692 8.00001 11.37 8.00001 13.5751C8.00001 16.768 10.0669 20.0641 12.623 22.8235C13.8425 24.1401 15.0705 25.224 16 25.9819C16.9295 25.224 18.1575 24.1401 19.377 22.8235ZM16 29.3327C16 29.3327 26.6667 22.06 26.6667 13.5751C26.6667 10.6818 25.5429 7.90707 23.5425 5.86121C21.5421 3.81536 18.829 2.66602 16 2.66602C13.171 2.66602 10.4579 3.81536 8.45754 5.86121C6.45715 7.90707 5.33334 10.6818 5.33334 13.5751C5.33334 22.06 16 29.3327 16 29.3327Z" fill="#191919"/>
<path fill-rule="evenodd" clip-rule="evenodd" d="M16 12.0007C15.2636 12.0007 14.6667 12.5976 14.6667 13.334C14.6667 14.0704 15.2636 14.6673 16 14.6673C16.7364 14.6673 17.3333 14.0704 17.3333 13.334C17.3333 12.5976 16.7364 12.0007 16 12.0007ZM12 13.334C12 11.1248 13.7909 9.33398 16 9.33398C18.2091 9.33398 20 11.1248 20 13.334C20 15.5431 18.2091 17.334 16 17.334C13.7909 17.334 12 15.5431 12 13.334Z" fill="#191919"/>
</svg>
