<svg width="32" height="32" viewBox="0 0 32 32" fill="none" xmlns="http://www.w3.org/2000/svg">
<path fill-rule="evenodd" clip-rule="evenodd" d="M16.0003 5.33331C21.8914 5.33331 26.667 10.1089 26.667 16C26.667 21.891 21.8914 26.6666 16.0003 26.6666C10.1093 26.6666 5.33366 21.891 5.33366 16C5.33366 10.1089 10.1093 5.33331 16.0003 5.33331ZM16.0003 2.66665C23.3641 2.66665 29.3337 8.63618 29.3337 16C29.3337 23.3638 23.3641 29.3333 16.0003 29.3333C8.63653 29.3333 2.66699 23.3638 2.66699 16C2.66699 8.63618 8.63653 2.66665 16.0003 2.66665Z" fill="#191919"/>
<path fill-rule="evenodd" clip-rule="evenodd" d="M16.0003 17.3333C15.2639 17.3333 14.667 16.7364 14.667 16V10.6666C14.667 9.93027 15.2639 9.33331 16.0003 9.33331C16.7367 9.33331 17.3337 9.93027 17.3337 10.6666V16C17.3337 16.7364 16.7367 17.3333 16.0003 17.3333ZM16.0003 20C16.7367 20 17.3337 20.5969 17.3337 21.3333C17.3337 22.0697 16.7367 22.6666 16.0003 22.6666C15.2639 22.6666 14.667 22.0697 14.667 21.3333C14.667 20.5969 15.2639 20 16.0003 20Z" fill="#191919"/>
</svg>
