<svg width="32" height="32" viewBox="0 0 32 32" fill="none" xmlns="http://www.w3.org/2000/svg">
<path fill-rule="evenodd" clip-rule="evenodd" d="M16.0003 5.33337C21.8914 5.33337 26.667 10.109 26.667 16C26.667 21.8911 21.8914 26.6667 16.0003 26.6667C10.1093 26.6667 5.33366 21.8911 5.33366 16C5.33366 10.109 10.1093 5.33337 16.0003 5.33337ZM16.0003 2.66671C23.3641 2.66671 29.3337 8.63624 29.3337 16C29.3337 23.3638 23.3641 29.3334 16.0003 29.3334C8.63653 29.3334 2.66699 23.3638 2.66699 16C2.66699 8.63624 8.63653 2.66671 16.0003 2.66671Z" fill="#E6E6E6"/>
<path fill-rule="evenodd" clip-rule="evenodd" d="M16.0003 17.3334C15.2639 17.3334 14.667 16.7364 14.667 16V10.6667C14.667 9.93033 15.2639 9.33337 16.0003 9.33337C16.7367 9.33337 17.3337 9.93033 17.3337 10.6667V16C17.3337 16.7364 16.7367 17.3334 16.0003 17.3334ZM16.0003 20C16.7367 20 17.3337 20.597 17.3337 21.3334C17.3337 22.0698 16.7367 22.6667 16.0003 22.6667C15.2639 22.6667 14.667 22.0698 14.667 21.3334C14.667 20.597 15.2639 20 16.0003 20Z" fill="#E6E6E6"/>
</svg>
