<svg width="32" height="32" viewBox="0 0 32 32" fill="none" xmlns="http://www.w3.org/2000/svg">
<path fill-rule="evenodd" clip-rule="evenodd" d="M10.667 16C10.667 15.2636 11.2639 14.6666 12.0003 14.6666H20.0003C20.7367 14.6666 21.3337 15.2636 21.3337 16C21.3337 16.7363 20.7367 17.3333 20.0003 17.3333H12.0003C11.2639 17.3333 10.667 16.7363 10.667 16Z" fill="#E6E6E6"/>
<path fill-rule="evenodd" clip-rule="evenodd" d="M16.0003 21.3334C15.2639 21.3334 14.667 20.7364 14.667 20L14.667 12C14.667 11.2637 15.2639 10.6667 16.0003 10.6667C16.7367 10.6667 17.3337 11.2637 17.3337 12L17.3337 20C17.3337 20.7364 16.7367 21.3334 16.0003 21.3334Z" fill="#E6E6E6"/>
</svg>
