<svg width="32" height="32" viewBox="0 0 32 32" fill="none" xmlns="http://www.w3.org/2000/svg">
<path fill-rule="evenodd" clip-rule="evenodd" d="M10.667 16C10.667 15.2636 11.2639 14.6667 12.0003 14.6667H20.0003C20.7367 14.6667 21.3337 15.2636 21.3337 16C21.3337 16.7364 20.7367 17.3333 20.0003 17.3333H12.0003C11.2639 17.3333 10.667 16.7364 10.667 16Z" fill="#191919"/>
<path fill-rule="evenodd" clip-rule="evenodd" d="M16.0003 21.3333C15.2639 21.3333 14.667 20.7364 14.667 20L14.667 12C14.667 11.2636 15.2639 10.6667 16.0003 10.6667C16.7367 10.6667 17.3337 11.2636 17.3337 12L17.3337 20C17.3337 20.7364 16.7367 21.3333 16.0003 21.3333Z" fill="#191919"/>
</svg>

