<svg width="24" height="24" viewBox="0 0 24 24" fill="none" xmlns="http://www.w3.org/2000/svg">
<path fill-rule="evenodd" clip-rule="evenodd" d="M12 3C7.02944 3 3 7.02944 3 12C3 16.9706 7.02944 21 12 21C16.9706 21 21 16.9706 21 12C21 7.02944 16.9706 3 12 3ZM1 12C1 5.92487 5.92487 1 12 1C18.0751 1 23 5.92487 23 12C23 18.0751 18.0751 23 12 23C5.92487 23 1 18.0751 1 12Z" fill="#0D0D0D"/>
<path d="M12 3V4.5" stroke="#191919" stroke-width="2" stroke-linecap="round"/>
<path d="M4.5 13C5.05228 13 5.5 12.5523 5.5 12C5.5 11.4477 5.05228 11 4.5 11V13ZM3 13H4.5V11H3V13Z" fill="#191919"/>
<path d="M13 19.5C13 18.9477 12.5523 18.5 12 18.5C11.4477 18.5 11 18.9477 11 19.5H13ZM13 21V19.5H11V21H13Z" fill="#191919"/>
<path d="M19.5 11C18.9477 11 18.5 11.4477 18.5 12C18.5 12.5523 18.9477 13 19.5 13V11ZM21 11H19.5V13H21V11Z" fill="#191919"/>
<circle cx="12" cy="12" r="2" fill="#191919"/>
<path d="M16 12.75C16.4142 12.75 16.75 12.4142 16.75 12C16.75 11.5858 16.4142 11.25 16 11.25V12.75ZM12 12.75L16 12.75V11.25L12 11.25V12.75Z" fill="#191919"/>
</svg>
