<svg width="24" height="24" viewBox="0 0 24 24" fill="none" xmlns="http://www.w3.org/2000/svg">
<path fill-rule="evenodd" clip-rule="evenodd" d="M18 9.5C18 8.94772 17.5523 8.5 17 8.5H5C4.44771 8.5 4 8.94772 4 9.5V19.5C4 20.0523 4.44771 20.5 5 20.5C5.55229 20.5 6 20.0523 6 19.5V10.5003L17 10.5C17.5523 10.5 18 10.0523 18 9.5Z" fill="#191919"/>
<path fill-rule="evenodd" clip-rule="evenodd" d="M11.2628 3.32428C10.8897 3.7314 10.9172 4.36397 11.3243 4.73716L16.5201 9.50001L11.3243 14.2629C10.9172 14.636 10.8897 15.2686 11.2628 15.6757C11.636 16.0828 12.2686 16.1104 12.6757 15.7372L18.6757 10.2372C18.8824 10.0477 19 9.78031 19 9.50001C19 9.2197 18.8824 8.95226 18.6757 8.76285L12.6757 3.26285C12.2686 2.88966 11.636 2.91716 11.2628 3.32428Z" fill="#191919"/>
</svg>
