<svg width="32" height="32" viewBox="0 0 32 32" fill="none" xmlns="http://www.w3.org/2000/svg">
<path fill-rule="evenodd" clip-rule="evenodd" d="M11.8 5.33268C11.8 3.85992 12.9939 2.66602 14.4667 2.66602H17.4963C18.9691 2.66602 20.163 3.85992 20.163 5.33268V6.12613C20.1639 6.12911 20.1667 6.13575 20.1742 6.14643C20.1913 6.17052 20.2255 6.20257 20.277 6.22515C21.1361 6.60152 21.9354 7.08747 22.6575 7.66496C22.7014 7.70007 22.7459 7.71535 22.7753 7.71911C22.7883 7.72077 22.7955 7.72008 22.7986 7.71945L23.9151 7.1159C25.1588 6.44362 26.711 6.85875 27.453 8.0621L28.8992 10.4074C29.7036 11.7118 29.2456 13.4242 27.8975 14.1529L26.6501 14.8272C26.6478 14.8295 26.6433 14.8351 26.6375 14.8471C26.6244 14.874 26.6128 14.9199 26.6181 14.9763C26.6502 15.3133 26.6666 15.6546 26.6666 15.9993C26.6666 16.3441 26.6502 16.6854 26.6181 17.0225C26.6127 17.0788 26.6244 17.1247 26.6375 17.1516C26.6433 17.1636 26.6478 17.1693 26.6501 17.1715L27.8974 17.8458C29.2455 18.5745 29.7035 20.2869 28.8991 21.5913L27.4529 23.9366C26.7109 25.1399 25.1587 25.5551 23.915 24.8828L22.7985 24.2793C22.7955 24.2786 22.7883 24.278 22.7753 24.2796C22.7459 24.2834 22.7014 24.2986 22.6575 24.3338C21.9354 24.9112 21.1361 25.3972 20.277 25.7735C20.2255 25.7961 20.1913 25.8282 20.1742 25.8523C20.1667 25.8629 20.1639 25.8696 20.163 25.8726V26.666C20.163 28.1388 18.9691 29.3327 17.4963 29.3327H14.4667C12.9939 29.3327 11.8 28.1388 11.8 26.666V25.8565C11.7991 25.8535 11.7964 25.8469 11.7889 25.8363C11.772 25.8123 11.738 25.7803 11.6868 25.7576C10.8357 25.381 10.0437 24.8966 9.32786 24.3221C9.28393 24.2868 9.23939 24.2715 9.20987 24.2677C9.19683 24.266 9.18964 24.2667 9.18658 24.2673L8.04794 24.8828C6.80427 25.5551 5.25209 25.1399 4.51005 23.9366L3.06383 21.5913C2.25947 20.2869 2.71744 18.5745 4.06556 17.8458L5.34802 17.1525C5.35024 17.1503 5.3548 17.1446 5.3606 17.1327C5.37368 17.1059 5.38534 17.0601 5.38008 17.0039C5.34911 16.6729 5.33331 16.3378 5.33331 15.9993C5.33331 15.6609 5.34911 15.3259 5.38008 14.9948C5.38534 14.9386 5.37367 14.8929 5.3606 14.866C5.35479 14.8541 5.35024 14.8485 5.34802 14.8462L4.06549 14.1529C2.71737 13.4242 2.2594 11.7118 3.06376 10.4074L4.50998 8.06211C5.25202 6.85876 6.8042 6.44364 8.04787 7.11591L9.18655 7.73144C9.18962 7.73206 9.1968 7.73275 9.20984 7.73107C9.23936 7.72727 9.2839 7.7119 9.32783 7.67665C10.0436 7.10214 10.8357 6.61773 11.6868 6.24106C11.738 6.21838 11.772 6.1864 11.7889 6.16243C11.7964 6.1518 11.7991 6.14519 11.8 6.14222V5.33268ZM11.8004 6.14039C11.8004 6.14039 11.8004 6.14093 11.8001 6.14206L11.8004 6.14039ZM9.18473 7.73087C9.18475 7.73081 9.18535 7.73093 9.1864 7.73141L9.18473 7.73087ZM5.34655 14.845C5.34658 14.845 5.34706 14.8453 5.34791 14.8461L5.34655 14.845ZM5.34655 17.1537C5.34655 17.1536 5.34698 17.1532 5.34791 17.1526L5.34655 17.1537ZM9.18476 24.2679C9.18472 24.2678 9.18524 24.2676 9.18643 24.2673L9.18476 24.2679ZM26.6515 17.1727C26.6514 17.1727 26.6509 17.1723 26.6501 17.1716L26.6515 17.1727ZM26.6515 14.826C26.6516 14.8261 26.6512 14.8265 26.6502 14.8271L26.6515 14.826ZM22.8004 7.71888C22.8005 7.71893 22.7999 7.71917 22.7987 7.71942L22.8004 7.71888ZM20.1626 6.12429C20.1627 6.12429 20.1629 6.12486 20.163 6.12597L20.1626 6.12429ZM17.4963 5.33268L14.4667 5.33268V6.14345C14.4667 7.32685 13.7033 8.26479 12.766 8.67958C12.1288 8.96162 11.5347 9.32479 10.997 9.75634C10.1846 10.4084 8.97685 10.6494 7.91949 10.0779L6.77979 9.46178L5.33357 11.8071L6.61711 12.5009C7.67178 13.071 8.13188 14.2092 8.03515 15.2432C8.0119 15.4918 7.99998 15.744 7.99998 15.9993C7.99998 16.2547 8.0119 16.5069 8.03515 16.7555C8.13189 17.7895 7.67179 18.9277 6.61711 19.4978L5.33364 20.1916L6.77986 22.5369L7.91951 21.9209C8.97688 21.3493 10.1846 21.5904 10.997 22.2424C11.5347 22.6739 12.1288 23.0371 12.766 23.3191C13.7033 23.7339 14.4667 24.6719 14.4667 25.8552V26.666H17.4963V25.8714C17.4963 24.6837 18.265 23.7437 19.2069 23.331C19.8501 23.0492 20.4496 22.6849 20.992 22.2512C21.8043 21.6016 23.01 21.3622 24.0656 21.9328L25.1831 22.5369L26.6293 20.1916L25.381 19.5168C24.3245 18.9457 23.8648 17.8049 23.9635 16.7695C23.9876 16.5164 24 16.2595 24 15.9993C24 15.7392 23.9876 15.4824 23.9635 15.2293C23.8648 14.1939 24.3245 13.053 25.381 12.4819L26.6294 11.8071L25.1832 9.46176L24.0656 10.0659C23.01 10.6365 21.8043 10.3972 20.992 9.74756C20.4496 9.31378 19.8501 8.94947 19.2069 8.66767C18.265 8.25499 17.4963 7.31501 17.4963 6.12735L17.4963 5.33268Z" fill="#191919"/>
<path fill-rule="evenodd" clip-rule="evenodd" d="M16 18.666C17.4727 18.666 18.6666 17.4721 18.6666 15.9993C18.6666 14.5266 17.4727 13.3327 16 13.3327C14.5272 13.3327 13.3333 14.5266 13.3333 15.9993C13.3333 17.4721 14.5272 18.666 16 18.666ZM16 21.3327C18.9455 21.3327 21.3333 18.9449 21.3333 15.9993C21.3333 13.0538 18.9455 10.666 16 10.666C13.0544 10.666 10.6666 13.0538 10.6666 15.9993C10.6666 18.9449 13.0544 21.3327 16 21.3327Z" fill="#191919"/>
</svg>
