<svg width="32" height="32" viewBox="0 0 32 32" fill="none" xmlns="http://www.w3.org/2000/svg">
<path fill-rule="evenodd" clip-rule="evenodd" d="M11.7996 5.33329C11.7996 3.86053 12.9936 2.66663 14.4663 2.66663H17.496C18.9687 2.66663 20.1626 3.86053 20.1626 5.33329V6.12674C20.1635 6.12972 20.1663 6.13636 20.1739 6.14704C20.1909 6.17113 20.2251 6.20318 20.2767 6.22576C21.1357 6.60213 21.9351 7.08808 22.6572 7.66557C22.7011 7.70069 22.7455 7.71596 22.775 7.71972C22.788 7.72138 22.7951 7.72069 22.7982 7.72007L23.9147 7.11651C25.1584 6.44423 26.7106 6.85936 27.4526 8.06271L28.8989 10.408C29.7032 11.7124 29.2452 13.4248 27.8971 14.1535L26.6497 14.8278C26.6475 14.8301 26.6429 14.8358 26.6371 14.8477C26.624 14.8746 26.6124 14.9206 26.6178 14.9769C26.6499 15.3139 26.6663 15.6552 26.6663 16C26.6663 16.3447 26.6499 16.686 26.6178 17.0231C26.6124 17.0794 26.624 17.1253 26.6371 17.1522C26.6429 17.1642 26.6475 17.1699 26.6497 17.1721L27.897 17.8464C29.2452 18.5751 29.7031 20.2875 28.8988 21.5919L27.4526 23.9372C26.7105 25.1406 25.1583 25.5557 23.9147 24.8834L22.7982 24.2799C22.7951 24.2793 22.7879 24.2786 22.7749 24.2802C22.7455 24.284 22.7011 24.2993 22.6571 24.3344C21.935 24.9119 21.1357 25.3978 20.2767 25.7742C20.2251 25.7967 20.1909 25.8288 20.1739 25.8529C20.1663 25.8636 20.1635 25.8702 20.1626 25.8732V26.6666C20.1626 28.1394 18.9687 29.3333 17.496 29.3333H14.4663C12.9935 29.3333 11.7996 28.1394 11.7996 26.6666V25.8571C11.7988 25.8541 11.796 25.8475 11.7885 25.8369C11.7716 25.8129 11.7377 25.7809 11.6864 25.7583C10.8353 25.3816 10.0433 24.8972 9.32749 24.3227C9.28356 24.2874 9.23902 24.2721 9.2095 24.2683C9.19646 24.2666 9.18928 24.2673 9.18621 24.2679L8.04757 24.8834C6.80391 25.5557 5.25172 25.1405 4.50968 23.9372L3.06347 21.5919C2.2591 20.2875 2.71708 18.5751 4.0652 17.8464L5.34766 17.1531C5.34987 17.1509 5.35443 17.1452 5.36024 17.1333C5.37331 17.1065 5.38497 17.0607 5.37971 17.0045C5.34875 16.6735 5.33294 16.3384 5.33294 16C5.33294 15.6616 5.34874 15.3265 5.37971 14.9955C5.38497 14.9392 5.37331 14.8935 5.36023 14.8666C5.35443 14.8547 5.34987 14.8491 5.34765 14.8468L4.06513 14.1536C2.71701 13.4248 2.25903 11.7124 3.06339 10.408L4.50961 8.06272C5.25165 6.85937 6.80383 6.44425 8.0475 7.11652L9.18618 7.73205C9.18925 7.73267 9.19644 7.73336 9.20947 7.73168C9.23899 7.72788 9.28354 7.71251 9.32746 7.67726C10.0433 7.10275 10.8353 6.61834 11.6864 6.24167C11.7377 6.21899 11.7716 6.18701 11.7885 6.16304C11.796 6.15241 11.7988 6.1458 11.7996 6.14284V5.33329ZM11.8 6.14101C11.8001 6.141 11.8 6.14154 11.7997 6.14267ZM9.18436 7.73148C9.18439 7.73142 9.18499 7.73154 9.18603 7.73202ZM5.34619 14.8456C5.34622 14.8456 5.34669 14.8459 5.34755 14.8467ZM5.34619 17.1543C5.34618 17.1542 5.34661 17.1538 5.34755 17.1532ZM9.18439 24.2685C9.18436 24.2684 9.18487 24.2682 9.18606 24.2679ZM26.6511 17.1733C26.651 17.1733 26.6505 17.1729 26.6498 17.1722ZM26.6512 14.8266C26.6512 14.8267 26.6508 14.8271 26.6498 14.8277ZM22.8 7.71949C22.8001 7.71954 22.7996 7.71978 22.7984 7.72003ZM20.1623 6.1249C20.1623 6.12491 20.1625 6.12547 20.1626 6.12658ZM17.496 5.33329L14.4663 5.33329V6.14406C14.4663 7.32746 13.7029 8.2654 12.7657 8.68019C12.1284 8.96223 11.5343 9.3254 10.9966 9.75695C10.1842 10.409 8.97649 10.65 7.91912 10.0785L6.77942 9.46239L5.33321 11.8077L6.61674 12.5015C7.67141 13.0716 8.13151 14.2099 8.03478 15.2438C8.01153 15.4924 7.99961 15.7446 7.99961 16C7.99961 16.2553 8.01153 16.5075 8.03479 16.7561C8.13152 17.7901 7.67142 18.9283 6.61675 19.4984L5.33328 20.1922L6.77949 22.5375L7.91915 21.9215C8.97651 21.3499 10.1842 21.591 10.9966 22.243C11.5343 22.6745 12.1284 23.0377 12.7657 23.3197C13.7029 23.7345 14.4663 24.6725 14.4663 25.8559V26.6666H17.496V25.872C17.496 24.6843 18.2646 23.7443 19.2065 23.3316C19.8497 23.0498 20.4492 22.6855 20.9917 22.2518C21.8039 21.6022 23.0096 21.3628 24.0652 21.9335L25.1828 22.5375L26.629 20.1922L25.3806 19.5174C24.3242 18.9464 23.8644 17.8055 23.9631 16.7701C23.9872 16.517 23.9996 16.2601 23.9996 16C23.9996 15.7398 23.9872 15.483 23.9631 15.2299C23.8644 14.1945 24.3242 13.0536 25.3806 12.4825L26.629 11.8077L25.1828 9.46237L24.0653 10.0665C23.0097 10.6371 21.804 10.3978 20.9917 9.74817C20.4493 9.31439 19.8497 8.95008 19.2065 8.66828C18.2646 8.2556 17.496 7.31563 17.496 6.12796L17.496 5.33329Z" fill="#E6E6E6"/>
<path fill-rule="evenodd" clip-rule="evenodd" d="M16.0003 18.6666C17.4731 18.6666 18.667 17.4727 18.667 16C18.667 14.5272 17.4731 13.3333 16.0003 13.3333C14.5276 13.3333 13.3337 14.5272 13.3337 16C13.3337 17.4727 14.5276 18.6666 16.0003 18.6666ZM16.0003 21.3333C18.9458 21.3333 21.3337 18.9455 21.3337 16C21.3337 13.0544 18.9458 10.6666 16.0003 10.6666C13.0548 10.6666 10.667 13.0544 10.667 16C10.667 18.9455 13.0548 21.3333 16.0003 21.3333Z" fill="#E6E6E6"/>
</svg>
