<svg width="40" height="40" viewBox="0 0 40 40" fill="none" xmlns="http://www.w3.org/2000/svg">
<path fill-rule="evenodd" clip-rule="evenodd" d="M20 26.6667C23.6819 26.6667 26.6667 23.6819 26.6667 20C26.6667 16.3181 23.6819 13.3333 20 13.3333C16.3181 13.3333 13.3333 16.3181 13.3333 20C13.3333 23.6819 16.3181 26.6667 20 26.6667ZM20 30C25.5228 30 30 25.5228 30 20C30 14.4772 25.5228 10 20 10C14.4772 10 10 14.4772 10 20C10 25.5228 14.4772 30 20 30Z" fill="#E6E6E6"/>
<path d="M20.0003 8.33329C19.0798 8.33329 18.3337 7.5871 18.3337 6.66663V3.33329C18.3337 2.41282 19.0798 1.66663 20.0003 1.66663C20.9208 1.66663 21.667 2.41282 21.667 3.33329V6.66663C21.667 7.5871 20.9208 8.33329 20.0003 8.33329ZM30.5704 11.7632C29.9334 12.4002 28.9006 12.4002 28.2636 11.7632C27.6325 11.1322 27.6258 10.1111 28.2484 9.47175L30.6126 7.04431C31.2597 6.37985 32.3267 6.37752 32.9767 7.03915C33.6127 7.68651 33.6081 8.72551 32.9664 9.36723L30.5704 11.7632ZM33.3337 21.6666C32.4132 21.6666 31.667 20.9204 31.667 20C31.667 19.0795 32.4132 18.3333 33.3337 18.3333H36.667C37.5875 18.3333 38.3337 19.0795 38.3337 20C38.3337 20.9204 37.5875 21.6666 36.667 21.6666H33.3337ZM20.0003 38.3333C19.0798 38.3333 18.3337 37.5871 18.3337 36.6666V33.3333C18.3337 32.4128 19.0798 31.6666 20.0003 31.6666C20.9208 31.6666 21.667 32.4128 21.667 33.3333V36.6666C21.667 37.5871 20.9208 38.3333 20.0003 38.3333ZM11.7213 11.7362C11.0873 12.3476 10.0824 12.3452 9.45131 11.7307L7.04488 9.38764C6.38033 8.74058 6.37794 7.67356 7.03958 7.02352C7.68691 6.38755 8.72585 6.39215 9.36752 7.03382L11.7425 9.4088C12.3877 10.054 12.3781 11.1029 11.7213 11.7362ZM32.9582 32.9164C32.298 33.5997 31.2029 33.5994 30.543 32.9158L28.2303 30.5198C27.6169 29.8843 27.6258 28.8744 28.2504 28.2499C28.8749 27.6254 29.8846 27.6164 30.5201 28.2296L32.9165 30.5419C33.584 31.186 33.6027 32.2493 32.9582 32.9164ZM3.33366 21.6666C2.41318 21.6666 1.66699 20.9204 1.66699 20C1.66699 19.0795 2.41318 18.3333 3.33366 18.3333H6.66699C7.58747 18.3333 8.33366 19.0795 8.33366 20C8.33366 20.9204 7.58747 21.6666 6.66699 21.6666H3.33366ZM9.3962 32.9791C8.74205 33.6332 7.68001 33.6285 7.03167 32.9686C6.39139 32.3169 6.39602 31.2709 7.04204 30.6249L9.37458 28.2924C10.026 27.641 11.0761 27.6222 11.7503 28.25C12.4142 28.891 12.4235 29.9518 11.771 30.6043L9.3962 32.9791Z" fill="#E6E6E6"/>
</svg>
