<svg width="40" height="40" viewBox="0 0 40 40" fill="none" xmlns="http://www.w3.org/2000/svg">
<path fill-rule="evenodd" clip-rule="evenodd" d="M20 26.6667C23.6819 26.6667 26.6667 23.6819 26.6667 20C26.6667 16.3181 23.6819 13.3333 20 13.3333C16.3181 13.3333 13.3333 16.3181 13.3333 20C13.3333 23.6819 16.3181 26.6667 20 26.6667ZM20 30C25.5228 30 30 25.5228 30 20C30 14.4772 25.5228 10 20 10C14.4772 10 10 14.4772 10 20C10 25.5228 14.4772 30 20 30Z" fill="#191919"/>
<path d="M20 8.33268C19.0795 8.33268 18.3334 7.58649 18.3334 6.66601V3.33268C18.3334 2.41221 19.0795 1.66602 20 1.66602C20.9205 1.66602 21.6667 2.41221 21.6667 3.33268V6.66602C21.6667 7.58649 20.9205 8.33268 20 8.33268ZM30.5701 11.7626C29.9331 12.3996 28.9003 12.3996 28.2633 11.7626C27.6322 11.1315 27.6255 10.1105 28.2481 9.47114L30.6123 7.0437C31.2594 6.37924 32.3264 6.37691 32.9764 7.03854C33.6124 7.6859 33.6078 8.7249 32.9661 9.36662L30.5701 11.7626ZM33.3333 21.666C32.4129 21.666 31.6667 20.9198 31.6667 19.9993C31.6667 19.0789 32.4129 18.3327 33.3334 18.3327H36.6667C37.5872 18.3327 38.3334 19.0789 38.3334 19.9993C38.3334 20.9198 37.5872 21.666 36.6667 21.666H33.3333ZM20 38.3327C19.0795 38.3327 18.3334 37.5865 18.3334 36.666V33.3327C18.3334 32.4122 19.0795 31.666 20 31.666C20.9205 31.666 21.6667 32.4122 21.6667 33.3327V36.666C21.6667 37.5865 20.9205 38.3327 20 38.3327ZM11.721 11.7356C11.087 12.347 10.0821 12.3446 9.451 11.7301L7.04458 9.38703C6.38003 8.73997 6.37764 7.67295 7.03928 7.02291C7.68661 6.38694 8.72554 6.39154 9.36722 7.03321L11.7422 9.40819C12.3874 10.0534 12.3778 11.1023 11.721 11.7356ZM32.9579 32.9158C32.2977 33.5991 31.2026 33.5988 30.5427 32.9152L28.23 30.5192C27.6166 29.8836 27.6255 28.8738 28.2501 28.2493C28.8746 27.6248 29.8843 27.6157 30.5198 28.229L32.9162 30.5413C33.5837 31.1854 33.6024 32.2487 32.9579 32.9158ZM3.33335 21.666C2.41288 21.666 1.66669 20.9198 1.66669 19.9993C1.66669 19.0789 2.41288 18.3327 3.33335 18.3327H6.66669C7.58716 18.3327 8.33335 19.0789 8.33335 19.9993C8.33335 20.9198 7.58716 21.666 6.66669 21.666H3.33335ZM9.3959 32.9785C8.74174 33.6326 7.6797 33.6279 7.03136 32.968C6.39108 32.3163 6.39571 31.2703 7.04173 30.6243L9.37428 28.2918C10.0257 27.6404 11.0758 27.6216 11.75 28.2493C12.4139 28.8903 12.4232 29.9512 11.7707 30.6037L9.3959 32.9785Z" fill="#191919"/>
</svg>
