<svg width="24" height="24" viewBox="0 0 24 24" fill="none" xmlns="http://www.w3.org/2000/svg">
<path d="M21 19H3C2.44772 19 2 19.4477 2 20C2 20.5523 2.44772 21 3 21H21C21.5523 21 22 20.5523 22 20C22 19.4477 21.5523 19 21 19Z" fill="#E6E6E6"/>
<path fill-rule="evenodd" clip-rule="evenodd" d="M12.707 2.29289C12.3165 1.90237 11.6833 1.90237 11.2928 2.29289L8.29277 5.29289C7.90225 5.68342 7.90225 6.31658 8.29277 6.70711C8.6833 7.09763 9.31646 7.09763 9.70698 6.70711L11.0039 5.41024C11.0012 5.43981 10.9999 5.46975 10.9999 5.5V8C10.9999 8.55228 11.4476 9 11.9999 9C12.5522 9 12.9999 8.55228 12.9999 8V5.5C12.9999 5.46975 12.9985 5.43981 12.9959 5.41024L14.2928 6.70711C14.6833 7.09763 15.3165 7.09763 15.707 6.70711C16.0975 6.31658 16.0975 5.68342 15.707 5.29289L12.707 2.29289ZM12.0896 4.50397L11.9999 4.41421L11.9101 4.50397C11.9397 4.50134 11.9696 4.5 11.9999 4.5C12.0301 4.5 12.0601 4.50134 12.0896 4.50397ZM4.95391 10.3375L4.23752 9.60402C3.85644 9.21387 3.86011 8.58976 4.24576 8.20412C4.63463 7.81524 5.26512 7.81524 5.65399 8.20412L6.37895 8.92908C6.77504 9.32517 6.7694 9.96908 6.36642 10.3582C5.97001 10.7409 5.33893 10.7317 4.95391 10.3375ZM17.6624 8.95403L18.3959 8.23765C18.786 7.85657 19.4101 7.86024 19.7958 8.24588C20.1846 8.63476 20.1846 9.26524 19.7958 9.65412L19.0708 10.3791C18.6747 10.7752 18.0308 10.7695 17.6417 10.3665C17.259 9.97014 17.2682 9.33905 17.6624 8.95403ZM14.7749 12.825C15.5915 13.375 16.1915 14.1 16.5749 15H7.42487C7.8082 14.1 8.4082 13.375 9.22487 12.825C10.0415 12.275 10.9665 12 11.9999 12C13.0332 12 13.9582 12.275 14.7749 12.825ZM5.25998 15.0231C4.96299 16.087 5.8953 17 6.99987 17H16.9999C18.1044 17 19.0367 16.087 18.7398 15.0231C18.4278 13.9057 17.8354 12.9105 16.9624 12.0375C15.604 10.6792 13.9499 10 11.9999 10C10.0499 10 8.3957 10.6792 7.03737 12.0375C6.16436 12.9105 5.5719 13.9057 5.25998 15.0231Z" fill="#E6E6E6"/>
</svg>
