<svg width="24" height="24" viewBox="0 0 24 24" fill="none" xmlns="http://www.w3.org/2000/svg">
<path d="M21 19H3C2.44772 19 2 19.4477 2 20C2 20.5523 2.44772 21 3 21H21C21.5523 21 22 20.5523 22 20C22 19.4477 21.5523 19 21 19Z" fill="#E6E6E6"/>
<path fill-rule="evenodd" clip-rule="evenodd" d="M11.0039 5.58976C11.0012 5.56019 10.9999 5.53025 10.9999 5.5V3C10.9999 2.44772 11.4476 2 11.9999 2C12.5522 2 12.9999 2.44772 12.9999 3V5.5C12.9999 5.53025 12.9985 5.56019 12.9959 5.58976L14.2928 4.29289C14.6833 3.90237 15.3165 3.90237 15.707 4.29289C16.0975 4.68342 16.0975 5.31658 15.707 5.70711L12.707 8.70711C12.3165 9.09763 11.6833 9.09763 11.2928 8.70711L8.29277 5.70711C7.90225 5.31658 7.90225 4.68342 8.29277 4.29289C8.68329 3.90237 9.31646 3.90237 9.70698 4.29289L11.0039 5.58976ZM11.9101 6.49603L11.9999 6.58579L12.0896 6.49603C12.0601 6.49866 12.0301 6.5 11.9999 6.5C11.9696 6.5 11.9397 6.49866 11.9101 6.49603ZM4.95391 10.3375L4.23752 9.60403C3.85644 9.21388 3.86011 8.58977 4.24576 8.20413C4.63463 7.81525 5.26512 7.81525 5.65399 8.20413L6.37895 8.92909C6.77504 9.32518 6.7694 9.96909 6.36642 10.3582C5.97001 10.7409 5.33893 10.7317 4.95391 10.3375ZM17.6624 8.95404L18.3959 8.23766C18.786 7.85658 19.4101 7.86025 19.7958 8.24589C20.1846 8.63477 20.1846 9.26525 19.7958 9.65413L19.0708 10.3791C18.6747 10.7752 18.0308 10.7695 17.6417 10.3666C17.259 9.97015 17.2682 9.33906 17.6624 8.95404ZM14.7749 12.825C15.5915 13.375 16.1915 14.1 16.5749 15H7.42487C7.8082 14.1 8.4082 13.375 9.22487 12.825C10.0415 12.275 10.9665 12 11.9999 12C13.0332 12 13.9582 12.275 14.7749 12.825ZM5.25998 15.0231C4.96299 16.087 5.8953 17 6.99987 17H16.9999C18.1044 17 19.0367 16.087 18.7398 15.0231C18.4278 13.9057 17.8354 12.9105 16.9624 12.0375C15.604 10.6792 13.9499 10 11.9999 10C10.0499 10 8.3957 10.6792 7.03737 12.0375C6.16436 12.9105 5.5719 13.9057 5.25998 15.0231Z" fill="#E6E6E6"/>
</svg>
