<svg width="24" height="24" viewBox="0 0 24 24" fill="none" xmlns="http://www.w3.org/2000/svg">
<path d="M10 13V11H14V13C14.6667 13.6667 16 15.6 16 18C16 20.4 13.3333 21 12 21C10.6667 21 8 20.4 8 18C8 15.6 9.33333 13.6667 10 13Z" fill="#191919"/>
<path fill-rule="evenodd" clip-rule="evenodd" d="M12 2C10.3431 2 9 3.34315 9 5V12.9997C7.78742 13.9103 7 15.3632 7 17C7 19.7614 9.23858 22 12 22C14.7614 22 17 19.7614 17 17C17 15.3632 16.2126 13.9103 15 12.9997V9V6V5C15 3.34315 13.6569 2 12 2ZM13 5C12.4477 5 12 5.44772 12 6C12 6.55228 12.4477 7 13 7V8C12.4477 8 12 8.44772 12 9C12 9.55228 12.4477 10 13 10V13C13 13.6288 13.2902 14.1899 13.744 14.5565L13.743 14.5579L13.7761 14.5819C13.7918 14.5941 13.8076 14.606 13.8237 14.6177C14.5407 15.1675 15 16.0301 15 17C15 18.6568 13.6569 20 12 20C10.3431 20 9 18.6568 9 17C9 16.0301 9.45933 15.1675 10.1763 14.6177C10.1924 14.606 10.2082 14.594 10.2239 14.5819L10.257 14.5579L10.256 14.5565C10.7098 14.1899 11 13.6288 11 13V5C11 4.44772 11.4477 4 12 4C12.5523 4 13 4.44772 13 5Z" fill="#191919"/>
</svg>
