<svg width="24" height="24" viewBox="0 0 24 24" fill="none" xmlns="http://www.w3.org/2000/svg">
<path fill-rule="evenodd" clip-rule="evenodd" d="M13.9086 8C12.541 8 11.3358 8.63698 10.5823 9.61164L9 8.38836C10.1243 6.93413 11.9088 6 13.9086 6C16.5884 6 18.8958 7.68436 19.7262 10.0561C21.6158 10.3753 23.0551 12.0196 23.0551 14C23.0551 15.0953 22.6135 16.0895 21.901 16.8108L20.4781 15.4054C20.8359 15.0431 21.0551 14.5481 21.0551 14C21.0551 12.8954 20.1596 12 19.0551 12H18.0551C18.0551 9.81787 16.2261 8 13.9086 8ZM11 10C13.673 10 15.905 11.8686 16.328 14.3029C18.389 14.4829 20 16.1371 20 18.1429C20 20.2686 18.182 22 15.95 22H6.95C4.223 22 2 19.8829 2 17.2857C2 14.92 3.881 12.9229 6.302 12.6229C7.247 11.0114 9.038 10 11 10ZM6.95 20.2857H15.95C17.192 20.2857 18.2 19.3257 18.2 18.1429C18.2 17.0457 17.309 16.1114 16.166 16.0086L14.78 15.8886L14.555 14.5857C14.267 12.9486 12.746 11.7143 11 11.7143C9.704 11.7143 8.507 12.3829 7.868 13.4629L7.427 14.2086L6.536 14.32C4.979 14.5171 3.8 15.7943 3.8 17.2857C3.8 18.94 5.213 20.2857 6.95 20.2857Z" fill="#191919"/>
<path fill-rule="evenodd" clip-rule="evenodd" d="M9 3.3583C9.45187 3.3583 9.81818 2.98241 9.81818 2.51873V0.839576C9.81818 0.375891 9.45187 0 9 0C8.54813 0 8.18182 0.375891 8.18182 0.839576V2.51873C8.18182 2.98241 8.54813 3.3583 9 3.3583ZM3.81106 5.08612C4.12377 5.407 4.63078 5.407 4.94349 5.08611C5.25328 4.76822 5.2566 4.25387 4.95092 3.9318L3.79035 2.70898C3.47267 2.37426 2.94888 2.37309 2.62978 2.70638C2.31756 3.03249 2.31982 3.55588 2.63484 3.87914L3.81106 5.08612ZM3.27273 9.23534C3.27273 9.69902 2.90641 10.0749 2.45455 10.0749H0.818182C0.366312 10.0749 0 9.69902 0 9.23534C0 8.77165 0.366312 8.39576 0.818182 8.39576H2.45455C2.90641 8.39576 3.27273 8.77165 3.27273 9.23534ZM13.0642 5.07252C13.3755 5.38051 13.8688 5.37929 14.1786 5.06975L15.3599 3.88943C15.6862 3.56347 15.6874 3.02597 15.3625 2.69851C15.0448 2.37815 14.5347 2.38046 14.2197 2.7037L13.0538 3.90008C12.7371 4.22509 12.7418 4.75348 13.0642 5.07252ZM13.4005 7C12.5979 5.3394 10.9289 4.19788 9 4.19788C6.28878 4.19788 4.09091 6.45323 4.09091 9.23534C4.09091 11.2491 5.24243 12.9869 6.90665 13.7931C7.15281 13.7226 7.50001 13.5 7.50001 13.5C7.50001 13.5 7.86575 12.8259 8.03302 12.4446C6.69758 12.0214 5.72727 10.7447 5.72727 9.23534C5.72727 7.3806 7.19252 5.87703 9 5.87703C9.97093 5.87703 10.8431 6.3109 11.4425 7H13.4005Z" fill="#191919"/>
</svg>
