<svg width="24" height="24" viewBox="0 0 24 24" fill="none" xmlns="http://www.w3.org/2000/svg">
<g opacity="0.95">
<path fill-rule="evenodd" clip-rule="evenodd" d="M7.50004 16.134C7.97834 15.8578 8.58993 16.0217 8.86607 16.5L10.3661 19.0981C10.6422 19.5764 10.4783 20.188 10 20.4641C9.52175 20.7403 8.91016 20.5764 8.63402 20.0981L7.13402 17.5C6.85788 17.0217 7.02175 16.4101 7.50004 16.134ZM11.5 16.134C11.9783 15.8578 12.5899 16.0217 12.8661 16.5L15.3661 20.8301C15.6422 21.3084 15.4783 21.92 15 22.1962C14.5218 22.4723 13.9102 22.3084 13.634 21.8301L11.134 17.5C10.8579 17.0217 11.0218 16.4101 11.5 16.134ZM16.8661 16.5C16.5899 16.0217 15.9783 15.8578 15.5 16.134C15.0218 16.4101 14.8579 17.0217 15.134 17.5L16.634 20.0981C16.9102 20.5764 17.5218 20.7403 18 20.4641C18.4783 20.188 18.6422 19.5764 18.3661 19.0981L16.8661 16.5Z" fill="#191919"/>
<path d="M17.328 7.30286C16.905 4.86857 14.673 3 12 3C10.038 3 8.247 4.01143 7.302 5.62286C4.881 5.92286 3 7.92 3 10.2857C3 12.8829 5.223 15 7.95 15H16.95C19.182 15 21 13.2686 21 11.1429C21 9.13714 19.389 7.48286 17.328 7.30286ZM16.95 13.2857H7.95C6.213 13.2857 4.8 11.94 4.8 10.2857C4.8 8.79429 5.979 7.51714 7.536 7.32L8.427 7.20857L8.868 6.46286C9.507 5.38286 10.704 4.71429 12 4.71429C13.746 4.71429 15.267 5.94857 15.555 7.58571L15.78 8.88857L17.166 9.00857C18.309 9.11143 19.2 10.0457 19.2 11.1429C19.2 12.3257 18.192 13.2857 16.95 13.2857Z" fill="#191919"/>
</g>
</svg>
