<svg width="24" height="24" viewBox="0 0 24 24" fill="none" xmlns="http://www.w3.org/2000/svg">
<path d="M17.92 13.02C17.45 10.18 14.97 8 12 8C9.82 8 7.83 9.18 6.78 11.06C4.09 11.41 2 13.74 2 16.5C2 19.53 4.47 22 7.5 22H17.5C19.98 22 22 19.98 22 17.5C22 15.16 20.21 13.23 17.92 13.02ZM17.5 20H7.5C5.57 20 4 18.43 4 16.5C4 14.76 5.31 13.27 7.04 13.04L8.03 12.91L8.52 12.04C9.23 10.78 10.56 10 12 10C13.94 10 15.63 11.44 15.95 13.35L16.2 14.87L17.74 15.01C19.01 15.13 20 16.22 20 17.5C20 18.88 18.88 20 17.5 20Z" fill="#191919"/>
<path fill-rule="evenodd" clip-rule="evenodd" d="M10.5823 6.61164C11.3358 5.63698 12.541 5 13.9086 5C16.2261 5 18.0551 6.81787 18.0551 9H19.0551C20.1596 9 21.0551 9.89543 21.0551 11C21.0551 11.5481 20.8359 12.0431 20.4781 12.4054L21.901 13.8108C22.6135 13.0895 23.0551 12.0953 23.0551 11C23.0551 9.01958 21.6158 7.37531 19.7262 7.05607C18.8958 4.68436 16.5884 3 13.9086 3C11.9088 3 10.1243 3.93413 9 5.38836L10.5823 6.61164Z" fill="#191919"/>
</svg>
