<svg width="24" height="24" viewBox="0 0 24 24" fill="none" xmlns="http://www.w3.org/2000/svg">
<path fill-rule="evenodd" clip-rule="evenodd" d="M3 13C2.44772 13 2 13.4477 2 14C2 14.5523 2.44772 15 3 15H21C21.5523 15 22 14.5523 22 14C22 13.4477 21.5523 13 21 13H3ZM15 16C14.4477 16 14 16.4477 14 17C14 17.5523 14.4477 18 15 18H21C21.5523 18 22 17.5523 22 17C22 16.4477 21.5523 16 21 16H15ZM9 17C9 16.4477 9.44772 16 10 16H12C12.5523 16 13 16.4477 13 17C13 17.5523 12.5523 18 12 18H10C9.44772 18 9 17.5523 9 17ZM19 19C18.4477 19 18 19.4477 18 20C18 20.5523 18.4477 21 19 21H21C21.5523 21 22 20.5523 22 20C22 19.4477 21.5523 19 21 19H19ZM2 17C2 16.4477 2.44772 16 3 16H7C7.55228 16 8 16.4477 8 17C8 17.5523 7.55228 18 7 18H3C2.44772 18 2 17.5523 2 17ZM3 19C2.44772 19 2 19.4477 2 20C2 20.5523 2.44772 21 3 21H16C16.5523 21 17 20.5523 17 20C17 19.4477 16.5523 19 16 19H3Z" fill="#191919"/>
<path fill-rule="evenodd" clip-rule="evenodd" d="M12 3C14.673 3 16.905 4.86857 17.328 7.30286C19.389 7.48286 21 9.13714 21 11.1429C21 11.4373 20.9651 11.7242 20.8991 12H19.0126C19.1331 11.7375 19.2 11.4476 19.2 11.1429C19.2 10.0457 18.309 9.11143 17.166 9.00857L15.78 8.88857L15.555 7.58571C15.267 5.94857 13.746 4.71429 12 4.71429C10.704 4.71429 9.507 5.38286 8.868 6.46286L8.427 7.20857L7.536 7.32C5.979 7.51714 4.8 8.79429 4.8 10.2857C4.8 10.9226 5.00944 11.5138 5.36617 12H3.33939C3.12035 11.4683 3 10.89 3 10.2857C3 7.92 4.881 5.92286 7.302 5.62286C8.247 4.01143 10.038 3 12 3Z" fill="#191919"/>
</svg>
