<svg width="24" height="24" viewBox="0 0 24 24" fill="none" xmlns="http://www.w3.org/2000/svg">
<path fill-rule="evenodd" clip-rule="evenodd" d="M5.5 14C5.5 13.7239 5.27614 13.5 5 13.5C4.72386 13.5 4.5 13.7239 4.5 14V14.5H4C3.72386 14.5 3.5 14.7239 3.5 15C3.5 15.2761 3.72386 15.5 4 15.5H4.5V16C4.5 16.2761 4.72386 16.5 5 16.5C5.27614 16.5 5.5 16.2761 5.5 16V15.5H6C6.27614 15.5 6.5 15.2761 6.5 15C6.5 14.7239 6.27614 14.5 6 14.5H5.5V14ZM19 17.5C19.2761 17.5 19.5 17.7239 19.5 18V18.5H20C20.2761 18.5 20.5 18.7239 20.5 19C20.5 19.2761 20.2761 19.5 20 19.5H19.5V20C19.5 20.2761 19.2761 20.5 19 20.5C18.7239 20.5 18.5 20.2761 18.5 20V19.5H18C17.7239 19.5 17.5 19.2761 17.5 19C17.5 18.7239 17.7239 18.5 18 18.5H18.5V18C18.5 17.7239 18.7239 17.5 19 17.5Z" fill="#E6E6E6"/>
<path fill-rule="evenodd" clip-rule="evenodd" d="M5 3C3.34315 3 2 4.34315 2 6V8.13641C2 10.57 4.74498 11.9909 6.73199 10.5859L8.07869 9.63373C8.20627 10.3839 8.55665 12.4117 8.93864 14.3371C9.14782 15.3914 9.37318 16.4495 9.58162 17.2576C9.68325 17.6517 9.79594 18.0463 9.9166 18.3664C9.9722 18.5139 10.0636 18.739 10.1992 18.9595C10.2643 19.0654 10.3939 19.2608 10.6025 19.452C10.791 19.6247 11.2706 20 12 20C12.7294 20 13.209 19.6247 13.3975 19.452C13.6061 19.2608 13.7357 19.0654 13.8008 18.9595C13.9364 18.739 14.0278 18.5139 14.0834 18.3664C14.2041 18.0463 14.3168 17.6517 14.4184 17.2576C14.6268 16.4495 14.8522 15.3914 15.0614 14.3371C15.0882 14.2016 15.115 14.0656 15.1415 13.9295C15.2309 14.0726 15.3664 14.259 15.5612 14.4364C15.8149 14.6675 16.3045 15 17.0001 15C17.6961 15 18.1857 14.6672 18.4393 14.4362C18.6879 14.2097 18.84 13.9684 18.9227 13.8216C19.091 13.5233 19.1969 13.2076 19.2632 12.9845C19.4049 12.5086 19.5136 11.9392 19.5941 11.4492C19.6775 10.9417 19.7428 10.4419 19.7869 10.0739C19.8091 9.88865 19.8263 9.73377 19.8381 9.62424C19.8439 9.56941 19.8485 9.52579 19.8516 9.49523L19.8552 9.45935L19.8562 9.44916L19.8565 9.44607L19.8566 9.44504L19.8567 9.44466C19.8567 9.44451 19.8567 9.44437 18.148 9.27752L19.8567 9.44436L19.993 8.0486L20.6548 7.70544C21.4812 7.27691 22 6.42355 22 5.49261C22 4.11598 20.884 3 19.5074 3H5ZM13.882 9H13.3052H12.0284H12.0161H11.9839H11.9716H10.6948H10.118C10.0563 9 10.0089 9.053 10.0191 9.11393C10.0387 9.2298 10.0726 9.4297 10.118 9.69352C10.1765 10.0329 10.2542 10.478 10.345 10.986L10.3475 11C10.5233 11.9833 10.7482 13.1998 10.9793 14.3415C11.1065 14.97 11.2356 15.5757 11.3594 16.1074C11.6172 17.2144 11.8522 18 12 18C12.1478 18 12.3828 17.2144 12.6406 16.1074C12.7644 15.5757 12.8935 14.97 13.0207 14.3415C13.2518 13.1998 13.4767 11.9833 13.6525 11L13.655 10.986C13.7458 10.478 13.8235 10.0329 13.882 9.69352C13.9274 9.4297 13.9613 9.2298 13.9809 9.11393C13.9911 9.053 13.9437 9 13.882 9ZM13.882 7H17.4266C17.5868 7 17.7447 6.9615 17.8869 6.88775L19.7341 5.92993C19.8975 5.84524 20 5.67659 20 5.49261C20 5.22055 19.7794 5 19.5074 5H5C4.44772 5 4 5.44772 4 6V8.13641C4 8.94759 4.91499 9.42124 5.57733 8.95292L7.5608 7.55047C8.06733 7.19232 8.67243 7 9.29279 7H10.118H13.882ZM10.3283 16.986C10.3283 16.9859 10.3294 16.9831 10.3318 16.9779C10.3295 16.9835 10.3283 16.9861 10.3283 16.986ZM13.6712 16.9848C13.671 16.9845 13.6709 16.9842 13.6707 16.9838L13.6682 16.9779C13.6706 16.9831 13.6717 16.9859 13.6717 16.986C13.6717 16.986 13.6715 16.9857 13.6712 16.9848ZM16.4005 11.25C16.5529 12.144 16.7612 13 17.0001 13C17.2389 13 17.4472 12.144 17.5997 11.25C17.6079 11.2017 17.616 11.1534 17.6239 11.105C17.7759 10.1742 17.8661 9.25 17.8661 9.25H16.1341C16.1341 9.25 16.2243 10.1743 16.3763 11.1051C16.3842 11.1534 16.3923 11.2018 16.4005 11.25Z" fill="#E6E6E6"/>
</svg>
