<svg width="24" height="24" viewBox="0 0 24 24" fill="none" xmlns="http://www.w3.org/2000/svg">
<g opacity="0.95">
<path fill-rule="evenodd" clip-rule="evenodd" d="M13.1821 16.0299C13.2177 16.0548 13.2453 16.0934 13.2603 16.1395C13.2753 16.1855 13.2768 16.2364 13.2647 16.2837L12.6098 18.8438H13.8181C13.8536 18.8438 13.8884 18.8563 13.918 18.8797C13.9477 18.9032 13.971 18.9366 13.9851 18.9758C13.9992 19.015 14.0034 19.0584 13.9972 19.1004C13.9911 19.1425 13.9748 19.1815 13.9505 19.2126L11.0415 22.9311C11.0133 22.9671 10.9759 22.9906 10.9352 22.9977C10.8946 23.0048 10.8531 22.9952 10.8176 22.9703C10.7821 22.9455 10.7546 22.9069 10.7397 22.8608C10.7247 22.8148 10.7232 22.764 10.7353 22.7167L11.3902 20.1562H10.1819C10.1464 20.1562 10.1116 20.1437 10.082 20.1203C10.0523 20.0968 10.029 20.0634 10.0149 20.0242C10.0008 19.985 9.9966 19.9416 10.0028 19.8996C10.0089 19.8575 10.0252 19.8185 10.0495 19.7874L12.9585 16.0689C12.9866 16.0329 13.024 16.0095 13.0646 16.0023C13.1052 15.9952 13.1466 16.0047 13.1821 16.0295V16.0299ZM15.4375 19.075C15.7292 19.3583 16.0833 19.5 16.5 19.5C16.9167 19.5 17.2708 19.3583 17.5625 19.075C17.8542 18.7917 18 18.4417 18 18.025C18 17.825 17.9625 17.6333 17.8875 17.45C17.8125 17.2667 17.7 17.1083 17.55 16.975L16.5 16L15.45 16.975C15.3 17.1083 15.1875 17.2667 15.1125 17.45C15.0375 17.6333 15 17.825 15 18.025C15 18.4417 15.1458 18.7917 15.4375 19.075ZM7.5 19.5C7.08333 19.5 6.72917 19.3583 6.4375 19.075C6.14583 18.7917 6 18.4417 6 18.025C6 17.825 6.0375 17.6333 6.1125 17.45C6.1875 17.2667 6.3 17.1083 6.45 16.975L7.5 16L8.55 16.975C8.7 17.1083 8.8125 17.2667 8.8875 17.45C8.9625 17.6333 9 17.825 9 18.025C9 18.4417 8.85417 18.7917 8.5625 19.075C8.27083 19.3583 7.91667 19.5 7.5 19.5Z" fill="#191919"/>
<path d="M17.92 6.02C17.45 3.18 14.97 1 12 1C9.82 1 7.83 2.18 6.78 4.06C4.09 4.41 2 6.74 2 9.5C2 12.53 4.47 15 7.5 15H17.5C19.98 15 22 12.98 22 10.5C22 8.16 20.21 6.23 17.92 6.02ZM17.5 13H7.5C5.57 13 4 11.43 4 9.5C4 7.76 5.31 6.27 7.04 6.04L8.03 5.91L8.52 5.04C9.23 3.78 10.56 3 12 3C13.94 3 15.63 4.44 15.95 6.35L16.2 7.87L17.74 8.01C19.01 8.13 20 9.22 20 10.5C20 11.88 18.88 13 17.5 13Z" fill="#191919"/>
</g>
</svg>
