<svg width="24" height="24" viewBox="0 0 24 24" fill="none" xmlns="http://www.w3.org/2000/svg">
<path fill-rule="evenodd" clip-rule="evenodd" d="M6.41421 16L5 17.4142L6.41421 18.8284L7.82843 17.4142L6.41421 16ZM11.866 16.5002C11.5899 16.0219 10.9783 15.858 10.5 16.1341C10.0217 16.4103 9.85785 17.0219 10.134 17.5002L12.634 21.8303C12.9101 22.3086 13.5217 22.4725 14 22.1963C14.4783 21.9202 14.6422 21.3086 14.366 20.8303L11.866 16.5002ZM7 20.4142L8.41421 19L9.82843 20.4142L8.41421 21.8284L7 20.4142ZM16.5 19.5C16.0833 19.5 15.7292 19.3583 15.4375 19.075C15.1458 18.7917 15 18.4417 15 18.025C15 17.825 15.0375 17.6333 15.1125 17.45C15.1875 17.2667 15.3 17.1083 15.45 16.975L16.5 16L17.55 16.975C17.7 17.1083 17.8125 17.2667 17.8875 17.45C17.9625 17.6333 18 17.825 18 18.025C18 18.4417 17.8542 18.7917 17.5625 19.075C17.2708 19.3583 16.9167 19.5 16.5 19.5Z" fill="#E6E6E6"/>
<path d="M17.328 7.30286C16.905 4.86857 14.673 3 12 3C10.038 3 8.247 4.01143 7.302 5.62286C4.881 5.92286 3 7.92 3 10.2857C3 12.8829 5.223 15 7.95 15H16.95C19.182 15 21 13.2686 21 11.1429C21 9.13714 19.389 7.48286 17.328 7.30286ZM16.95 13.2857H7.95C6.213 13.2857 4.8 11.94 4.8 10.2857C4.8 8.79429 5.979 7.51714 7.536 7.32L8.427 7.20857L8.868 6.46286C9.507 5.38286 10.704 4.71429 12 4.71429C13.746 4.71429 15.267 5.94857 15.555 7.58571L15.78 8.88857L17.166 9.00857C18.309 9.11143 19.2 10.0457 19.2 11.1429C19.2 12.3257 18.192 13.2857 16.95 13.2857Z" fill="#E6E6E6"/>
</svg>
