<svg width="32" height="32" viewBox="0 0 32 32" fill="none" xmlns="http://www.w3.org/2000/svg">
<path d="M21.7707 19.0711C21.2067 15.8254 18.2307 13.334 14.6667 13.334C12.0507 13.334 9.66269 14.6826 8.40269 16.8311C5.17469 17.2311 2.66669 19.894 2.66669 23.0483C2.66669 26.5111 5.63069 29.334 9.26669 29.334H21.2667C24.2427 29.334 26.6667 27.0254 26.6667 24.1911C26.6667 21.5168 24.5187 19.3111 21.7707 19.0711ZM21.2667 27.0483H9.26669C6.95069 27.0483 5.06669 25.254 5.06669 23.0483C5.06669 21.0597 6.63869 19.3568 8.71469 19.094L9.90269 18.9454L10.4907 17.9511C11.3427 16.5111 12.9387 15.6197 14.6667 15.6197C16.9947 15.6197 19.0227 17.2654 19.4067 19.4483L19.7067 21.1854L21.5547 21.3454C23.0787 21.4826 24.2667 22.7283 24.2667 24.1911C24.2667 25.7683 22.9227 27.0483 21.2667 27.0483Z" fill="#191919"/>
<path d="M20 5.81172C19.3975 5.81172 18.9091 5.31053 18.9091 4.69229V2.45342C18.9091 1.83517 19.3975 1.33398 20 1.33398C20.6025 1.33398 21.0909 1.83517 21.0909 2.45342V4.69229C21.0909 5.31053 20.6025 5.81172 20 5.81172Z" fill="#191919"/>
<path d="M26.9186 8.11547C26.5016 8.54332 25.8256 8.54332 25.4087 8.11547C24.9956 7.69161 24.9912 7.00581 25.3988 6.57638L26.9462 4.94596C27.3698 4.49967 28.0682 4.49811 28.4936 4.9425C28.9099 5.37731 28.9069 6.07516 28.4869 6.50618L26.9186 8.11547Z" fill="#191919"/>
<path d="M28.7273 14.7672C28.1248 14.7672 27.6364 14.266 27.6364 13.6478C27.6364 13.0295 28.1248 12.5283 28.7273 12.5283H30.9091C31.5116 12.5283 32 13.0295 32 13.6478C32 14.266 31.5116 14.7672 30.9091 14.7672H28.7273Z" fill="#191919"/>
<path d="M14.581 8.09735C14.166 8.508 13.5083 8.50637 13.0952 8.09365L11.5201 6.51989C11.0851 6.08528 11.0835 5.36861 11.5166 4.932C11.9403 4.50484 12.6203 4.50793 13.0403 4.93892L14.5949 6.5341C15.0172 6.96743 15.0109 7.67196 14.581 8.09735Z" fill="#191919"/>
<path d="M28.4815 22.3232C28.0494 22.7822 27.3326 22.782 26.9007 22.3228L25.3869 20.7135C24.9854 20.2867 24.9913 19.6084 25.4001 19.1889C25.8088 18.7695 26.4697 18.7634 26.8857 19.1753L28.4542 20.7284C28.8911 21.161 28.9034 21.8752 28.4815 22.3232Z" fill="#191919"/>
<path d="M9.09091 14.7672C8.48842 14.7672 8 14.266 8 13.6478C8 13.0295 8.48842 12.5283 9.09091 12.5283H11.2727C11.8752 12.5283 12.3636 13.0295 12.3636 13.6478C12.3636 13.786 12.3392 13.9185 12.2945 14.0407C11.7584 14.224 11.2481 14.4683 10.7739 14.7672H9.09091Z" fill="#191919"/>
<path d="M13.4553 13.7479C13.4548 13.7146 13.4545 13.6812 13.4545 13.6478C13.4545 9.93828 16.385 6.93116 20 6.93116C23.615 6.93116 26.5455 9.93828 26.5455 13.6478C26.5455 16.3328 25.0101 18.6498 22.7911 19.7248C22.4629 19.6308 22.1217 19.5664 21.7707 19.5349C21.6757 18.9741 21.5123 18.4352 21.2893 17.9268C23.0699 17.3626 24.3636 15.6602 24.3636 13.6478C24.3636 11.1748 22.41 9.17003 20 9.17003C17.59 9.17003 15.6364 11.1748 15.6364 13.6478C15.6364 13.6691 15.6365 13.6904 15.6368 13.7117C15.3194 13.6695 14.9955 13.6478 14.6667 13.6478C14.2561 13.6478 13.8511 13.6819 13.4553 13.7479Z" fill="#191919"/>
</svg>
