<svg width="24" height="24" viewBox="0 0 24 24" fill="none" xmlns="http://www.w3.org/2000/svg">
<path fill-rule="evenodd" clip-rule="evenodd" d="M5 17.4142L6.41421 16L7.82843 17.4142L6.41421 18.8284L5 17.4142ZM7 20.4142L8.41421 19L9.82843 20.4142L8.41421 21.8284L7 20.4142ZM15.4142 16L14 17.4142L15.4142 18.8284L16.8284 17.4142L15.4142 16ZM11 16.5C11.2761 16.5 11.5 16.7239 11.5 17V17.5H12C12.2761 17.5 12.5 17.7239 12.5 18C12.5 18.2761 12.2761 18.5 12 18.5H11.5V19C11.5 19.2761 11.2761 19.5 11 19.5C10.7239 19.5 10.5 19.2761 10.5 19V18.5H10C9.72386 18.5 9.5 18.2761 9.5 18C9.5 17.7239 9.72386 17.5 10 17.5H10.5V17C10.5 16.7239 10.7239 16.5 11 16.5ZM18 18.5C18.2761 18.5 18.5 18.7239 18.5 19V19.5H19C19.2761 19.5 19.5 19.7239 19.5 20C19.5 20.2761 19.2761 20.5 19 20.5H18.5V21C18.5 21.2761 18.2761 21.5 18 21.5C17.7239 21.5 17.5 21.2761 17.5 21V20.5H17C16.7239 20.5 16.5 20.2761 16.5 20C16.5 19.7239 16.7239 19.5 17 19.5H17.5V19C17.5 18.7239 17.7239 18.5 18 18.5Z" fill="#E6E6E6"/>
<path d="M17.328 7.30286C16.905 4.86857 14.673 3 12 3C10.038 3 8.247 4.01143 7.302 5.62286C4.881 5.92286 3 7.92 3 10.2857C3 12.8829 5.223 15 7.95 15H16.95C19.182 15 21 13.2686 21 11.1429C21 9.13714 19.389 7.48286 17.328 7.30286ZM16.95 13.2857H7.95C6.213 13.2857 4.8 11.94 4.8 10.2857C4.8 8.79429 5.979 7.51714 7.536 7.32L8.427 7.20857L8.868 6.46286C9.507 5.38286 10.704 4.71429 12 4.71429C13.746 4.71429 15.267 5.94857 15.555 7.58571L15.78 8.88857L17.166 9.00857C18.309 9.11143 19.2 10.0457 19.2 11.1429C19.2 12.3257 18.192 13.2857 16.95 13.2857Z" fill="#E6E6E6"/>
</svg>
