<svg width="32" height="32" viewBox="0 0 32 32" fill="none" xmlns="http://www.w3.org/2000/svg">
<path d="M21.771 19.0705C21.207 15.8248 18.231 13.3334 14.667 13.3334C12.051 13.3334 9.66299 14.6819 8.40299 16.8305C5.17499 17.2305 2.66699 19.8934 2.66699 23.0477C2.66699 26.5105 5.63099 29.3334 9.26699 29.3334H21.267C24.243 29.3334 26.667 27.0248 26.667 24.1905C26.667 21.5162 24.519 19.3105 21.771 19.0705ZM21.267 27.0477H9.26699C6.95099 27.0477 5.06699 25.2534 5.06699 23.0477C5.06699 21.0591 6.63899 19.3562 8.71499 19.0934L9.90299 18.9448L10.491 17.9505C11.343 16.5105 12.939 15.6191 14.667 15.6191C16.995 15.6191 19.023 17.2648 19.407 19.4477L19.707 21.1848L21.555 21.3448C23.079 21.4819 24.267 22.7277 24.267 24.1905C24.267 25.7677 22.923 27.0477 21.267 27.0477Z" fill="#E6E6E6"/>
<path d="M20 5.81111C19.3975 5.81111 18.9091 5.30992 18.9091 4.69168V2.45281C18.9091 1.83456 19.3975 1.33337 20 1.33337C20.6025 1.33337 21.0909 1.83456 21.0909 2.45281V4.69168C21.0909 5.30992 20.6025 5.81111 20 5.81111Z" fill="#E6E6E6"/>
<path d="M26.9186 8.11486C26.5016 8.54271 25.8256 8.54271 25.4087 8.11486C24.9956 7.691 24.9912 7.0052 25.3988 6.57577L26.9462 4.94535C27.3698 4.49906 28.0682 4.4975 28.4936 4.94189C28.9099 5.3767 28.9069 6.07455 28.4869 6.50557L26.9186 8.11486Z" fill="#E6E6E6"/>
<path d="M28.7273 14.7666C28.1248 14.7666 27.6364 14.2654 27.6364 13.6472C27.6364 13.0289 28.1248 12.5277 28.7273 12.5277H30.9091C31.5116 12.5277 32 13.0289 32 13.6472C32 14.2654 31.5116 14.7666 30.9091 14.7666H28.7273Z" fill="#E6E6E6"/>
<path d="M14.581 8.09674C14.166 8.50739 13.5083 8.50575 13.0952 8.09304L11.5201 6.51928C11.0851 6.08467 11.0835 5.368 11.5166 4.93139C11.9403 4.50423 12.6203 4.50732 13.0403 4.93831L14.5949 6.53349C15.0172 6.96682 15.0109 7.67135 14.581 8.09674Z" fill="#E6E6E6"/>
<path d="M28.4815 22.3226C28.0494 22.7816 27.3326 22.7814 26.9007 22.3222L25.3869 20.7129C24.9854 20.2861 24.9913 19.6078 25.4001 19.1883C25.8088 18.7688 26.4697 18.7628 26.8857 19.1747L28.4542 20.7278C28.8911 21.1604 28.9034 21.8745 28.4815 22.3226Z" fill="#E6E6E6"/>
<path d="M9.09091 14.7666C8.48842 14.7666 8 14.2654 8 13.6472C8 13.0289 8.48842 12.5277 9.09091 12.5277H11.2727C11.8752 12.5277 12.3636 13.0289 12.3636 13.6472C12.3636 13.7854 12.3392 13.9179 12.2945 14.0401C11.7584 14.2234 11.2481 14.4677 10.7739 14.7666H9.09091Z" fill="#E6E6E6"/>
<path d="M13.4553 13.7472C13.4548 13.7139 13.4545 13.6806 13.4545 13.6472C13.4545 9.93767 16.385 6.93055 20 6.93055C23.615 6.93055 26.5455 9.93767 26.5455 13.6472C26.5455 16.3322 25.0101 18.6492 22.7911 19.7242C22.4629 19.6302 22.1217 19.5658 21.7707 19.5343C21.6757 18.9735 21.5123 18.4346 21.2893 17.9262C23.0699 17.3619 24.3636 15.6596 24.3636 13.6472C24.3636 11.1742 22.41 9.16942 20 9.16942C17.59 9.16942 15.6364 11.1742 15.6364 13.6472C15.6364 13.6685 15.6365 13.6898 15.6368 13.7111C15.3194 13.6689 14.9955 13.6472 14.6667 13.6472C14.2561 13.6472 13.8511 13.6812 13.4553 13.7472Z" fill="#E6E6E6"/>
</svg>
