<svg width="24" height="24" viewBox="0 0 24 24" fill="none" xmlns="http://www.w3.org/2000/svg">
<path fill-rule="evenodd" clip-rule="evenodd" d="M7.5 19.5C7.08333 19.5 6.72917 19.3583 6.4375 19.075C6.14583 18.7917 6 18.4417 6 18.025C6 17.825 6.0375 17.6333 6.1125 17.45C6.1875 17.2667 6.3 17.1083 6.45 16.975L7.5 16L8.55 16.975C8.7 17.1083 8.8125 17.2667 8.8875 17.45C8.9625 17.6333 9 17.825 9 18.025C9 18.4417 8.85417 18.7917 8.5625 19.075C8.27083 19.3583 7.91667 19.5 7.5 19.5ZM16.4375 19.075C16.7292 19.3583 17.0833 19.5 17.5 19.5C17.9167 19.5 18.2708 19.3583 18.5625 19.075C18.8542 18.7917 19 18.4417 19 18.025C19 17.825 18.9625 17.6333 18.8875 17.45C18.8125 17.2667 18.7 17.1083 18.55 16.975L17.5 16L16.45 16.975C16.3 17.1083 16.1875 17.2667 16.1125 17.45C16.0375 17.6333 16 17.825 16 18.025C16 18.4417 16.1458 18.7917 16.4375 19.075ZM11.4375 20.075C11.7292 20.3583 12.0833 20.5 12.5 20.5C12.9167 20.5 13.2708 20.3583 13.5625 20.075C13.8542 19.7917 14 19.4417 14 19.025C14 18.825 13.9625 18.6333 13.8875 18.45C13.8125 18.2667 13.7 18.1083 13.55 17.975L12.5 17L11.45 17.975C11.3 18.1083 11.1875 18.2667 11.1125 18.45C11.0375 18.6333 11 18.825 11 19.025C11 19.4417 11.1458 19.7917 11.4375 20.075Z" fill="#191919"/>
<path d="M17.328 7.30286C16.905 4.86857 14.673 3 12 3C10.038 3 8.247 4.01143 7.302 5.62286C4.881 5.92286 3 7.92 3 10.2857C3 12.8829 5.223 15 7.95 15H16.95C19.182 15 21 13.2686 21 11.1429C21 9.13714 19.389 7.48286 17.328 7.30286ZM16.95 13.2857H7.95C6.213 13.2857 4.8 11.94 4.8 10.2857C4.8 8.79429 5.979 7.51714 7.536 7.32L8.427 7.20857L8.868 6.46286C9.507 5.38286 10.704 4.71429 12 4.71429C13.746 4.71429 15.267 5.94857 15.555 7.58571L15.78 8.88857L17.166 9.00857C18.309 9.11143 19.2 10.0457 19.2 11.1429C19.2 12.3257 18.192 13.2857 16.95 13.2857Z" fill="#191919"/>
</svg>
