<svg width="24" height="24" viewBox="0 0 24 24" fill="none" xmlns="http://www.w3.org/2000/svg">
<path fill-rule="evenodd" clip-rule="evenodd" d="M18 14C17.4477 14 17 14.4477 17 15C17 15.5523 17.4477 16 18 16H20C20.5523 16 21 15.5523 21 15C21 14.4477 20.5523 14 20 14H18ZM2 19C2 18.4477 2.44772 18 3 18H13C13.5523 18 14 18.4477 14 19C14 19.5523 13.5523 20 13 20H3C2.44772 20 2 19.5523 2 19ZM16 19C16 18.4477 16.4477 18 17 18H20C20.5523 18 21 18.4477 21 19C21 19.5523 20.5523 20 20 20H17C16.4477 20 16 19.5523 16 19ZM12 15C12 14.4477 12.4477 14 13 14H14C14.5523 14 15 14.4477 15 15C15 15.5523 14.5523 16 14 16H13C12.4477 16 12 15.5523 12 15ZM5 14C4.44772 14 4 14.4477 4 15C4 15.5523 4.44772 16 5 16H9C9.55228 16 10 15.5523 10 15C10 14.4477 9.55228 14 9 14H5Z" fill="#E6E6E6"/>
<path fill-rule="evenodd" clip-rule="evenodd" d="M10 5C10 4.44772 10.4477 4 11 4H21C21.5523 4 22 4.44772 22 5C22 5.55228 21.5523 6 21 6H11C10.4477 6 10 5.55228 10 5ZM4 9C3.44772 9 3 9.44772 3 10C3 10.5523 3.44772 11 4 11H7C7.55228 11 8 10.5523 8 10C8 9.44772 7.55228 9 7 9H4ZM9 10C9 9.44772 9.44772 9 10 9H12C12.5523 9 13 9.44772 13 10C13 10.5523 12.5523 11 12 11H10C9.44772 11 9 10.5523 9 10ZM14 10C14 9.44772 14.4477 9 15 9H19C19.5523 9 20 9.44772 20 10C20 10.5523 19.5523 11 19 11H15C14.4477 11 14 10.5523 14 10ZM5 4C4.44772 4 4 4.44772 4 5C4 5.55228 4.44772 6 5 6H8C8.55228 6 9 5.55228 9 5C9 4.44772 8.55228 4 8 4H5Z" fill="#E6E6E6"/>
</svg>
