<svg width="24" height="24" viewBox="0 0 24 24" fill="none" xmlns="http://www.w3.org/2000/svg">
<path fill-rule="evenodd" clip-rule="evenodd" d="M9.26026 16.1394C9.24527 16.0933 9.21773 16.0547 9.18214 16.0299C9.14664 16.0051 9.10522 15.9951 9.06462 16.0023C9.02402 16.0094 8.98662 16.0329 8.95851 16.0688L6.04953 19.7874C6.02517 19.8185 6.00891 19.8575 6.00275 19.8995C5.9966 19.9416 6.00082 19.9849 6.0149 20.0242C6.02897 20.0634 6.05229 20.0968 6.08196 20.1202C6.11164 20.1437 6.14637 20.1562 6.18188 20.1562H7.3902L6.73532 22.7167C6.7232 22.764 6.72474 22.8148 6.73968 22.8608C6.75462 22.9069 6.78208 22.9455 6.8176 22.9703C6.85311 22.9952 6.89457 23.0048 6.93523 22.9977C6.97589 22.9906 7.01334 22.9671 7.04149 22.9311L9.95047 19.2125C9.97483 19.1815 9.99109 19.1425 9.99725 19.1004C10.0034 19.0583 9.99918 19.015 9.9851 18.9758C9.97103 18.9366 9.94771 18.9032 9.91804 18.8797C9.88836 18.8562 9.85363 18.8437 9.81812 18.8438H8.6098L9.26468 16.2836C9.27681 16.2363 9.27525 16.1855 9.26026 16.1394ZM15.2603 16.1395C15.2453 16.0934 15.2177 16.0548 15.1821 16.0299V16.0295C15.1466 16.0047 15.1052 15.9952 15.0646 16.0023C15.024 16.0095 14.9866 16.0329 14.9585 16.0689L12.0495 19.7874C12.0252 19.8185 12.0089 19.8575 12.0028 19.8996C11.9966 19.9416 12.0008 19.985 12.0149 20.0242C12.029 20.0634 12.0523 20.0968 12.082 20.1203C12.1116 20.1437 12.1464 20.1562 12.1819 20.1562H13.3902L12.7353 22.7167C12.7232 22.764 12.7247 22.8148 12.7397 22.8608C12.7546 22.9069 12.7821 22.9455 12.8176 22.9703C12.8531 22.9952 12.8946 23.0048 12.9352 22.9977C12.9759 22.9906 13.0133 22.9671 13.0415 22.9311L15.9505 19.2126C15.9748 19.1815 15.9911 19.1425 15.9972 19.1004C16.0034 19.0584 15.9992 19.015 15.9851 18.9758C15.971 18.9366 15.9477 18.9032 15.918 18.8797C15.8884 18.8563 15.8536 18.8438 15.8181 18.8438H14.6098L15.2647 16.2837C15.2768 16.2364 15.2753 16.1855 15.2603 16.1395Z" fill="#191919"/>
<path d="M17.92 6.02C17.45 3.18 14.97 1 12 1C9.82 1 7.83 2.18 6.78 4.06C4.09 4.41 2 6.74 2 9.5C2 12.53 4.47 15 7.5 15H17.5C19.98 15 22 12.98 22 10.5C22 8.16 20.21 6.23 17.92 6.02ZM17.5 13H7.5C5.57 13 4 11.43 4 9.5C4 7.76 5.31 6.27 7.04 6.04L8.03 5.91L8.52 5.04C9.23 3.78 10.56 3 12 3C13.94 3 15.63 4.44 15.95 6.35L16.2 7.87L17.74 8.01C19.01 8.13 20 9.22 20 10.5C20 11.88 18.88 13 17.5 13Z" fill="#191919"/>
</svg>
