<svg width="24" height="24" viewBox="0 0 24 24" fill="none" xmlns="http://www.w3.org/2000/svg">
<path d="M16.328 14.3029C15.905 11.8686 13.673 10 11 10C9.038 10 7.247 11.0114 6.302 12.6229C3.881 12.9229 2 14.92 2 17.2857C2 19.8829 4.223 22 6.95 22H15.95C18.182 22 20 20.2686 20 18.1429C20 16.1371 18.389 14.4829 16.328 14.3029ZM15.95 20.2857H6.95C5.213 20.2857 3.8 18.94 3.8 17.2857C3.8 15.7943 4.979 14.5171 6.536 14.32L7.427 14.2086L7.868 13.4629C8.507 12.3829 9.704 11.7143 11 11.7143C12.746 11.7143 14.267 12.9486 14.555 14.5857L14.78 15.8886L16.166 16.0086C17.309 16.1114 18.2 17.0457 18.2 18.1429C18.2 19.3257 17.192 20.2857 15.95 20.2857Z" fill="#E6E6E6"/>
<path d="M15 4.3583C14.5481 4.3583 14.1818 3.98241 14.1818 3.51873V1.83958C14.1818 1.37589 14.5481 1 15 1C15.4519 1 15.8182 1.37589 15.8182 1.83958V3.51873C15.8182 3.98241 15.4519 4.3583 15 4.3583Z" fill="#E6E6E6"/>
<path d="M20.1889 6.08612C19.8762 6.40701 19.3692 6.40701 19.0565 6.08611C18.7467 5.76822 18.7434 5.25387 19.0491 4.9318L20.2096 3.70898C20.5273 3.37426 21.0511 3.37309 21.3702 3.70638C21.6824 4.03249 21.6802 4.55588 21.3652 4.87914L20.1889 6.08612Z" fill="#E6E6E6"/>
<path d="M21.5455 11.0749C21.0936 11.0749 20.7273 10.699 20.7273 10.2353C20.7273 9.77165 21.0936 9.39576 21.5455 9.39576H23.1818C23.6337 9.39576 24 9.77165 24 10.2353C24 10.699 23.6337 11.0749 23.1818 11.0749H21.5455Z" fill="#E6E6E6"/>
<path d="M10.9358 6.07252C10.6245 6.38051 10.1312 6.37929 9.82139 6.06975L8.64006 4.88943C8.31382 4.56347 8.31265 4.02597 8.63745 3.69851C8.95523 3.37815 9.46526 3.38046 9.78026 3.7037L10.9462 4.90008C11.2629 5.22509 11.2582 5.75348 10.9358 6.07252Z" fill="#E6E6E6"/>
<path d="M21.3611 16.7419C21.0371 17.0861 20.4994 17.086 20.1755 16.7416L19.0402 15.5346C18.7391 15.2145 18.7434 14.7058 19.05 14.3912C19.3566 14.0766 19.8523 14.0721 20.1643 14.381L21.3407 15.5458C21.6684 15.8702 21.6775 16.4059 21.3611 16.7419Z" fill="#E6E6E6"/>
<path d="M6.81818 11.0749C6.36631 11.0749 6 10.699 6 10.2353C6 9.77165 6.36631 9.39576 6.81818 9.39576H8.45455C8.90641 9.39576 9.27273 9.77165 9.27273 10.2353C9.27273 10.339 9.2544 10.4384 9.22089 10.5301C8.81878 10.6675 8.43606 10.8507 8.08042 11.0749H6.81818Z" fill="#E6E6E6"/>
<path d="M10.0914 10.3104C10.0911 10.2854 10.0909 10.2604 10.0909 10.2353C10.0909 7.45323 12.2888 5.19788 15 5.19788C17.7112 5.19788 19.9091 7.45323 19.9091 10.2353C19.9091 12.2491 18.7576 13.9869 17.0934 14.7931C16.8472 14.7226 16.5913 14.6743 16.328 14.6507C16.2568 14.2301 16.1343 13.8259 15.967 13.4446C17.3024 13.0214 18.2727 11.7447 18.2727 10.2353C18.2727 8.3806 16.8075 6.87703 15 6.87703C13.1925 6.87703 11.7273 8.3806 11.7273 10.2353C11.7273 10.2513 11.7274 10.2673 11.7276 10.2833C11.4895 10.2517 11.2466 10.2353 11 10.2353C10.6921 10.2353 10.3883 10.2609 10.0914 10.3104Z" fill="#E6E6E6"/>
</svg>
