<svg width="40" height="40" viewBox="0 0 40 40" fill="none" xmlns="http://www.w3.org/2000/svg">
<path d="M23.3328 33.3294C23.3328 35.1704 21.8404 36.6628 19.9995 36.6628C18.1585 36.6628 16.6661 35.1704 16.6661 33.3294C16.6661 31.4885 18.1585 29.9961 19.9995 29.9961C21.8404 29.9961 23.3328 31.4885 23.3328 33.3294Z" fill="#191919"/>
<path fill-rule="evenodd" clip-rule="evenodd" d="M4.47026 16.2138C8.77419 12.2 14.2971 9.99935 20.0002 9.99935C25.7033 9.99935 31.2262 12.2 35.5302 16.2138C36.2033 16.8416 37.258 16.8048 37.8858 16.1317C38.5135 15.4585 38.4768 14.4039 37.8036 13.7761C32.9001 9.20312 26.5709 6.66602 20.0002 6.66602C13.4295 6.66602 7.10028 9.20312 2.19683 13.7761C1.52366 14.4039 1.48688 15.4585 2.11467 16.1317C2.74246 16.8048 3.7971 16.8416 4.47026 16.2138ZM20.0015 18.3314C16.2134 18.3314 12.4961 19.9013 9.50517 22.8513C8.84983 23.4977 7.79458 23.4905 7.1482 22.8351C6.50182 22.1798 6.50908 21.1245 7.16442 20.4782C10.7246 16.9666 15.2636 14.9981 20.0015 14.9981C24.7393 14.9981 29.2783 16.9666 32.8385 20.4782C33.4938 21.1245 33.5011 22.1798 32.8547 22.8351C32.2083 23.4905 31.1531 23.4977 30.4978 22.8513C27.5068 19.9013 23.7895 18.3314 20.0015 18.3314ZM20.0006 26.6635C18.5723 26.6635 17.172 27.1273 15.9939 28.0018C15.2548 28.5504 14.2108 28.3959 13.6622 27.6568C13.1136 26.9177 13.2681 25.8738 14.0072 25.3252C15.7505 24.0313 17.8451 23.3301 20.0006 23.3301C22.156 23.3301 24.2506 24.0313 25.9939 25.3252C26.733 25.8738 26.8875 26.9177 26.3389 27.6568C25.7903 28.3959 24.7464 28.5504 24.0072 28.0018C22.8291 27.1273 21.4288 26.6635 20.0006 26.6635Z" fill="#191919"/>
</svg>
