<svg width="24" height="24" viewBox="0 0 24 24" fill="none" xmlns="http://www.w3.org/2000/svg">
<path fill-rule="evenodd" clip-rule="evenodd" d="M3 14C2.44772 14 2 14.4477 2 15C2 15.5523 2.44772 16 3 16H12C13.1046 16 14 16.8954 14 18C14 19.1046 13.1046 20 12 20C10.8954 20 10 19.1046 10 18C10 17.4477 9.55228 17 9 17C8.44772 17 8 17.4477 8 18C8 20.2091 9.79086 22 12 22C14.2091 22 16 20.2091 16 18C16 15.7909 14.2091 14 12 14H3Z" fill="#E6E6E6"/>
<path fill-rule="evenodd" clip-rule="evenodd" d="M12 6C12 6.55229 12.4477 7 13 7C13.5523 7 14 6.55228 14 6C14 4.89543 14.8954 4 16 4C17.1046 4 18 4.89543 18 6C18 7.10457 17.1046 8 16 8H3C2.44772 8 2 8.44772 2 9C2 9.55228 2.44772 10 3 10H16C18.2091 10 20 8.20914 20 6C20 3.79086 18.2091 2 16 2C13.7909 2 12 3.79086 12 6ZM3 11C2.44772 11 2 11.4477 2 12C2 12.5523 2.44772 13 3 13H18C19.1046 13 20 13.8954 20 15C20 16.1046 19.1046 17 18 17C17.4477 17 17 17.4477 17 18C17 18.5523 17.4477 19 18 19C20.2091 19 22 17.2091 22 15C22 12.7909 20.2091 11 18 11H3Z" fill="#E6E6E6"/>
</svg>
