<svg width="56" height="56" viewBox="0 0 56 56" fill="none" xmlns="http://www.w3.org/2000/svg">
<path fill-rule="evenodd" clip-rule="evenodd" d="M28 38C33.5228 38 38 33.5228 38 28C38 22.4772 33.5228 18 28 18C22.4772 18 18 22.4772 18 28C18 33.5228 22.4772 38 28 38ZM28 43C36.2843 43 43 36.2843 43 28C43 19.7157 36.2843 13 28 13C19.7157 13 13 19.7157 13 28C13 36.2843 19.7157 43 28 43Z" fill="#FFD600"/>
<path d="M27.5 10.5C26.3954 10.5 25.5 9.60457 25.5 8.5V2.5C25.5 1.39543 26.3954 0.5 27.5 0.5H28.5C29.6046 0.5 30.5 1.39543 30.5 2.5V8.5C30.5 9.60457 29.6046 10.5 28.5 10.5H27.5ZM43.5392 15.9608C42.7582 16.7418 41.4918 16.7418 40.7108 15.9608L40.0831 15.3331C39.3094 14.5594 39.3011 13.3074 40.0646 12.5235L44.261 8.21475C45.0437 7.41107 46.3342 7.40825 47.1204 8.2085L47.7982 8.8984C48.5675 9.6814 48.5619 10.9381 47.7857 11.7143L43.5392 15.9608ZM47.5 30.5C46.3954 30.5 45.5 29.6046 45.5 28.5V27.5C45.5 26.3954 46.3954 25.5 47.5 25.5H53.5C54.6046 25.5 55.5 26.3954 55.5 27.5V28.5C55.5 29.6046 54.6046 30.5 53.5 30.5H47.5ZM27.5 55.5C26.3954 55.5 25.5 54.6046 25.5 53.5V47.5C25.5 46.3954 26.3954 45.5 27.5 45.5H28.5C29.6046 45.5 30.5 46.3954 30.5 47.5V53.5C30.5 54.6046 29.6046 55.5 28.5 55.5H27.5ZM15.27 15.9048C14.4926 16.6545 13.2603 16.6515 12.4865 15.8981L8.21508 11.739C7.41125 10.9563 7.40836 9.66569 8.20868 8.87942L8.8984 8.20179C9.6814 7.43253 10.9381 7.43809 11.7143 8.21425L15.9348 12.4348C16.7259 13.2259 16.7143 14.5121 15.9089 15.2887L15.27 15.9048ZM47.064 47.7605C46.2775 48.5746 44.9728 48.5743 44.1866 47.7598L40.0521 43.4763C39.2946 42.6915 39.3056 41.4444 40.0769 40.6731L40.6733 40.0767C41.4445 39.3055 42.6914 39.2943 43.4763 40.0517L47.7474 44.1729C48.5426 44.9402 48.5648 46.207 47.797 47.0018L47.064 47.7605ZM2.5 30.5C1.39543 30.5 0.5 29.6046 0.5 28.5V27.5C0.5 26.3954 1.39543 25.5 2.5 25.5H8.5C9.60457 25.5 10.5 26.3954 10.5 27.5V28.5C10.5 29.6046 9.60457 30.5 8.5 30.5H2.5ZM11.7393 47.8232C10.9533 48.6092 9.67735 48.6035 8.8984 47.8106L8.20179 47.1016C7.43253 46.3186 7.43809 45.0619 8.21425 44.2857L12.4479 40.0521C13.2093 39.2907 14.4368 39.2688 15.2249 40.0025L15.625 40.375L15.9732 40.7112C16.7777 41.488 16.789 42.7735 15.9983 43.5642L11.7393 47.8232Z" fill="#FFD600"/>
</svg>
