<svg width="24" height="24" viewBox="0 0 24 24" fill="none" xmlns="http://www.w3.org/2000/svg">
<g id="Edit / cut">
<path id="Layer01" fill-rule="evenodd" clip-rule="evenodd" d="M19.4142 3H21.2929C21.6834 3 22 3.31658 22 3.70711C22 3.89464 21.9255 4.0745 21.7929 4.20711L15 11L13 9L18.7071 3.29289C18.8946 3.10536 19.149 3 19.4142 3ZM10 12L12 14L9.70711 16.2929C9.68701 16.313 9.66627 16.3321 9.64495 16.3501C9.87301 16.8531 10 17.4117 10 18C10 20.2091 8.20914 22 6 22C3.79086 22 2 20.2091 2 18C2 15.7909 3.79086 14 6 14C6.58827 14 7.14688 14.127 7.64991 14.3551C7.66794 14.3337 7.68701 14.313 7.70711 14.2929L10 12ZM8 18C8 19.1046 7.10457 20 6 20C4.89543 20 4 19.1046 4 18C4 16.8954 4.89543 16 6 16C7.10457 16 8 16.8954 8 18Z" fill="#0D0D0D"/>
<path id="Layer02" fill-rule="evenodd" clip-rule="evenodd" d="M7.64991 9.64495C7.14688 9.87301 6.58827 10 6 10C3.79086 10 2 8.20914 2 6C2 3.79086 3.79086 2 6 2C8.20914 2 10 3.79086 10 6C10 6.58827 9.87301 7.14688 9.64495 7.64992C9.66627 7.66795 9.68701 7.68701 9.70711 7.70711L21.7929 19.7929C21.9255 19.9255 22 20.1054 22 20.2929C22 20.6834 21.6834 21 21.2929 21H19.4142C19.149 21 18.8946 20.8946 18.7071 20.7071L7.70711 9.70711C7.68701 9.68701 7.66794 9.66627 7.64991 9.64495ZM8 6C8 7.10457 7.10457 8 6 8C4.89543 8 4 7.10457 4 6C4 4.89543 4.89543 4 6 4C7.10457 4 8 4.89543 8 6ZM13 12C13 12.5523 12.5523 13 12 13C11.4477 13 11 12.5523 11 12C11 11.4477 11.4477 11 12 11C12.5523 11 13 11.4477 13 12Z" fill="#0D0D0D"/>
</g>
</svg>
