<svg width="24" height="24" viewBox="0 0 24 24" fill="none" xmlns="http://www.w3.org/2000/svg">
<g id="Navigation / help_question_circle_fill">
<path id="Layer01" fill-rule="evenodd" clip-rule="evenodd" d="M12 2C6.47715 2 2 6.47715 2 12C2 17.5228 6.47715 22 12 22C17.5228 22 22 17.5228 22 12C22 6.47715 17.5228 2 12 2ZM11.0859 13.1913C11.0305 13.6404 11.4243 14 11.8735 14C12.3172 14 12.65 13.6271 12.7863 13.2017C12.8088 13.1315 12.834 13.0635 12.8614 12.9937C12.9699 12.7167 13.2775 12.3375 13.7841 11.8562C14.1605 11.4771 14.4572 11.1161 14.6743 10.7734C14.8914 10.4307 15 10.0187 15 9.5375C15 8.72083 14.7033 8.09375 14.1098 7.65625C13.5164 7.21875 12.8143 7 12.0038 7C11.1787 7 10.5093 7.21875 9.99543 7.65625C9.47937 8.13493 9.18688 8.71516 9.03161 9.20479C8.88562 9.66512 9.26613 10.0625 9.74578 10.0625C10.2209 10.0625 10.5687 9.65217 10.7158 9.19697C10.7473 9.09933 10.7885 9.0118 10.8422 8.94687C11.0955 8.64062 11.4827 8.4875 12.0038 8.4875C12.467 8.4875 12.8143 8.6151 13.0459 8.87031C13.2775 9.12552 13.3933 9.40625 13.3933 9.7125C13.3933 10.0042 13.3065 10.2776 13.1328 10.5328C12.9591 10.788 12.742 11.025 12.4814 11.2437C11.8446 11.8125 11.4537 12.2427 11.309 12.5344C11.2968 12.5589 11.2847 12.5825 11.2728 12.6058L11.2726 12.6061C11.1938 12.7598 11.1218 12.9004 11.0859 13.1913ZM13 16C13 15.4477 12.5523 15 12 15C11.4477 15 11 15.4477 11 16C11 16.5523 11.4477 17 12 17C12.5523 17 13 16.5523 13 16Z" fill="#0D0D0D"/>
</g>
</svg>
