<svg width="24" height="24" viewBox="0 0 24 24" fill="none" xmlns="http://www.w3.org/2000/svg">
<path fill-rule="evenodd" clip-rule="evenodd" d="M19.4968 15.7897C20.2836 14.7793 20.9142 13.7515 21.4279 12.9142L21.4279 12.9142C21.6371 12.5732 21.8269 12.2638 22 12C21.8651 11.743 21.7267 11.4676 21.5817 11.179C20.1143 8.25938 17.9737 4 12 4C10.6125 4 9.41059 4.24746 8.36812 4.66102L11.717 8.00986C11.8105 8.00332 11.9048 8 12 8C14.2091 8 16 9.79086 16 12C16 12.0952 15.9967 12.1895 15.9901 12.283L19.4968 15.7897ZM2 12C2.55147 10.6765 3.50324 8.46339 5.28578 6.69999L8.55382 9.96803C8.20193 10.5635 8 11.2582 8 12C8 14.2091 9.79086 16 12 16C12.7418 16 13.4365 15.7981 14.032 15.4462L16.9327 18.347C15.5944 19.3254 13.9735 20 12 20C6.80109 20 4.08117 15.4622 2.47108 12.776C2.3024 12.4945 2.1459 12.2334 2 12ZM10 12C10 11.8208 10.0236 11.6472 10.0677 11.482L12.518 13.9323C12.3528 13.9764 12.1792 14 12 14C10.8954 14 10 13.1046 10 12Z" fill="#0D0D0D"/>
<path fill-rule="evenodd" clip-rule="evenodd" d="M2.29289 2.29289C2.68342 1.90237 3.31658 1.90237 3.70711 2.29289L21.7071 20.2929C22.0976 20.6834 22.0976 21.3166 21.7071 21.7071C21.3166 22.0976 20.6834 22.0976 20.2929 21.7071L2.29289 3.70711C1.90237 3.31658 1.90237 2.68342 2.29289 2.29289Z" fill="#0D0D0D"/>
</svg>
