<svg width="24" height="24" viewBox="0 0 24 24" fill="none" xmlns="http://www.w3.org/2000/svg">
<path fill-rule="evenodd" clip-rule="evenodd" d="M5.29285 8.29287C5.68337 7.90234 6.31653 7.90234 6.70706 8.29286C7.09759 8.68338 7.0976 9.31654 6.70707 9.70707L5.41417 11H9.00002C9.55231 11 10 11.4477 10 12C10 12.5523 9.55231 13 9.00002 13H5.41418L6.70706 14.2929C7.09759 14.6834 7.0976 15.3165 6.70707 15.7071C6.31655 16.0976 5.68339 16.0976 5.29286 15.7071L2.36357 12.7779C1.93399 12.3483 1.93398 11.6518 2.36356 11.2222L5.29285 8.29287ZM14 12C14 11.4477 14.4477 11 15 11H18.5857L17.2929 9.70714C16.9023 9.31661 16.9023 8.68345 17.2929 8.29292C17.6834 7.9024 18.3165 7.9024 18.7071 8.29292L21.6364 11.2222C22.0659 11.6518 22.0659 12.3483 21.6364 12.7778L18.7071 15.7071C18.3165 16.0977 17.6834 16.0977 17.2929 15.7071C16.9023 15.3166 16.9023 14.6834 17.2929 14.2929L18.5858 13H15C14.4477 13 14 12.5523 14 12Z" fill="#0D0D0D"/>
<path fill-rule="evenodd" clip-rule="evenodd" d="M8.29295 5.25147C7.90243 5.642 7.90243 6.27516 8.29295 6.66569C8.68348 7.05621 9.31664 7.05621 9.70717 6.66569L11 5.37285V9.00001C11 9.55229 11.4477 10 12 10C12.5523 10 13 9.55229 13 9.00001V5.37273L14.293 6.66569C14.6835 7.05621 15.3166 7.05621 15.7072 6.66569C16.0977 6.27516 16.0977 5.642 15.7072 5.25147L12.7779 2.32218C12.3483 1.89261 11.6518 1.8926 11.2222 2.32218L8.29295 5.25147ZM13.0003 18.5441L13 14.9999C12.9999 14.4476 12.5522 14 11.9999 14C11.4476 14.0001 10.9999 14.4478 11 15.0001L11.0003 18.5447L9.7071 17.2515C9.31657 16.8609 8.68341 16.861 8.29289 17.2515C7.90237 17.642 7.90237 18.2752 8.2929 18.6657L11.2223 21.595C11.6518 22.0246 12.3483 22.0245 12.7779 21.595L15.7071 18.6657C16.0976 18.2752 16.0976 17.642 15.7071 17.2515C15.3166 16.8609 14.6834 16.861 14.2929 17.2515L13.0003 18.5441Z" fill="#0D0D0D"/>
</svg>
