<svg width="24" height="24" viewBox="0 0 24 24" fill="none" xmlns="http://www.w3.org/2000/svg">
<g id="File / paste_general_fill">
<path id="Layer01" d="M6 19.875C6 21.0486 6.96431 22 8.15385 22L17.8462 22C19.0357 22 20 21.0486 20 19.875L20 7.125C20 5.95139 19.0357 5 17.8462 5L8.15385 5C6.96431 5 6 5.95139 6 7.125L6 19.875Z" fill="#0D0D0D"/>
<path id="Layer02" fill-rule="evenodd" clip-rule="evenodd" d="M5 18C3.89543 18 3 17.1046 3 16V4C3 2.89543 3.89543 2 5 2H14C15.1046 2 16 2.89543 16 4L7 4C5.89543 4 5 4.89543 5 6L5 18Z" fill="#0D0D0D"/>
</g>
</svg>
