<svg width="32" height="32" viewBox="0 0 32 32" fill="none" xmlns="http://www.w3.org/2000/svg">
<path fill-rule="evenodd" clip-rule="evenodd" d="M8 12.8182C8 11.814 8.56711 11 9.26667 11H20.0333C23.8809 11 27 15.4772 27 21C27 26.5228 23.8809 31 20.0333 31H12C11.3004 31 10.5 30.186 10.5 29.1818C10.5 28.1777 11.3004 27.3636 12 27.3636H20.0333C22.4818 27.3636 24.4667 24.5145 24.4667 21C24.4667 17.4855 22.4818 14.6364 20.0333 14.6364H9.26667C8.56711 14.6364 8 13.8223 8 12.8182Z" fill="#0D0D0D"/>
<path fill-rule="evenodd" clip-rule="evenodd" d="M12.9428 5.72385C13.4635 6.24455 13.4635 7.08877 12.9428 7.60947L8.55228 12L12.9428 16.3905C13.4635 16.9112 13.4635 17.7554 12.9428 18.2761C12.4221 18.7968 11.5779 18.7968 11.0572 18.2761L5.72385 12.9428C5.20315 12.4221 5.20315 11.5779 5.72385 11.0572L11.0572 5.72385C11.5779 5.20315 12.4221 5.20315 12.9428 5.72385Z" fill="#0D0D0D"/>
<path fill-rule="evenodd" clip-rule="evenodd" d="M15.7976 29.1818C15.7976 30.186 15.3317 31 14.5953 31H12.631C8.58088 31 5 26.5228 5 21C5 15.4772 5 22.5 5 20C5 19 5.5 18 6.5 18C7.5 18 7.96598 19 7.96598 20H8C8 22 7.9643 17.4855 7.9643 21C7.9643 24.5145 10.0536 27.3636 12.631 27.3636H14.5953C15.3317 27.3636 15.7976 28.1777 15.7976 29.1818Z" fill="#0D0D0D"/>
</svg>
