<svg width="24" height="24" viewBox="0 0 24 24" fill="none" xmlns="http://www.w3.org/2000/svg">
<path fill-rule="evenodd" clip-rule="evenodd" d="M6.21258 8C7.81596 6.15774 9.35083 5 11.8996 5C15.8328 5 19 8.14572 19 12C19 15.8543 15.8328 19 11.8996 19C8.5127 19 5.68925 16.6644 4.97458 13.5539C4.85091 13.0156 4.31431 12.6795 3.77605 12.8032C3.23779 12.9268 2.9017 13.4634 3.02537 14.0017C3.9478 18.0165 7.57647 21 11.8996 21C16.9138 21 21 16.9823 21 12C21 7.01772 16.9138 3 11.8996 3C8.69412 3 6.69438 4.48317 5 6.35199V5C5 4.44772 4.55228 4 4 4C3.44772 4 3 4.44772 3 5V8.9C3 9.50751 3.49249 10 4.1 10H8C8.55228 10 9 9.55228 9 9C9 8.44772 8.55228 8 8 8H6.21258Z" fill="#0D0D0D"/>
</svg>
