<svg width="24" height="24" viewBox="0 0 24 24" fill="none" xmlns="http://www.w3.org/2000/svg">
<path fill-rule="evenodd" clip-rule="evenodd" d="M21.5817 11.179C20.1143 8.25938 17.9737 4 12 4C5.4359 4 3.02564 9.53846 2 12C2.1459 12.2334 2.3024 12.4945 2.47108 12.776C4.08117 15.4622 6.80109 20 12 20C17.0808 20 19.8241 15.5284 21.4279 12.9142C21.6371 12.5732 21.8269 12.2638 22 12C21.8651 11.743 21.7267 11.4676 21.5817 11.179ZM14 12C14 13.1046 13.1046 14 12 14C10.8954 14 10 13.1046 10 12C10 10.8954 10.8954 10 12 10C13.1046 10 14 10.8954 14 12ZM16 12C16 14.2091 14.2091 16 12 16C9.79086 16 8 14.2091 8 12C8 9.79086 9.79086 8 12 8C14.2091 8 16 9.79086 16 12Z" fill="#0D0D0D"/>
</svg>
