<?xml version="1.0" encoding="UTF-8" standalone="no"?>
<svg
   version="1.1"
   viewBox="-10 0 1538 1538"
   id="svg4"
   sodipodi:docname="light_bulb.svg"
   width="1538"
   height="1538"
   inkscape:version="1.1.2 (0a00cf5339, 2022-02-04)"
   xmlns:inkscape="http://www.inkscape.org/namespaces/inkscape"
   xmlns:sodipodi="http://sodipodi.sourceforge.net/DTD/sodipodi-0.dtd"
   xmlns="http://www.w3.org/2000/svg"
   xmlns:svg="http://www.w3.org/2000/svg">
  <defs
     id="defs8" />
  <sodipodi:namedview
     id="namedview6"
     pagecolor="#ffffff"
     bordercolor="#666666"
     borderopacity="1.0"
     inkscape:pageshadow="2"
     inkscape:pageopacity="0.0"
     inkscape:pagecheckerboard="0"
     showgrid="false"
     fit-margin-top="1"
     fit-margin-left="1"
     fit-margin-right="1"
     fit-margin-bottom="1"
     lock-margins="true"
     inkscape:zoom="0.16"
     inkscape:cx="1234.375"
     inkscape:cy="409.375"
     inkscape:window-width="1846"
     inkscape:window-height="1016"
     inkscape:window-x="0"
     inkscape:window-y="0"
     inkscape:window-maximized="1"
     inkscape:current-layer="svg4" />
  <path
     fill="currentColor"
     d="m 983,449 q 0,13 -9.5,22.5 Q 964,481 951,481 938,481 928.5,471.5 919,462 919,449 919,403 865,378 811,353 759,353 746,353 736.5,343.5 727,334 727,321 q 0,-13 9.5,-22.5 9.5,-9.5 22.5,-9.5 50,0 99.5,16 49.5,16 87,54 37.5,38 37.5,90 z m 160,0 q 0,-72 -34.5,-134 -34.5,-62 -90,-101.5 Q 963,174 895.5,151.5 828,129 759,129 690,129 622.5,151.5 555,174 499.5,213.5 444,253 409.5,315 375,377 375,449 q 0,101 68,180 10,11 30.5,33 20.5,22 30.5,33 128,153 141,298 h 228 q 13,-145 141,-298 10,-11 30.5,-33 20.5,-22 30.5,-33 68,-79 68,-180 z m 128,0 q 0,155 -103,268 -45,49 -74.5,87 -29.5,38 -59.5,95.5 -30,57.5 -34,107.5 47,28 47,82 0,37 -25,64 25,27 25,64 0,52 -45,81 13,23 13,47 0,46 -31.5,71 -31.5,25 -77.5,25 -20,44 -60,70 -40,26 -87,26 -47,0 -87,-26 -40,-26 -60,-70 -46,0 -77.5,-25 -31.5,-25 -31.5,-71 0,-24 13,-47 -45,-29 -45,-81 0,-37 25,-64 -25,-27 -25,-64 0,-54 47,-82 Q 514,957 484,899.5 454,842 424.5,804 395,766 350,717 247,604 247,449 247,350 291.5,264.5 336,179 408.5,122.5 481,66 572.5,33.5 664,1 759,1 q 95,0 186.5,32.5 91.5,32.5 164,89 72.5,56.5 117,142 Q 1271,350 1271,449 Z"
     id="path2" />
</svg>
