<?xml version="1.0" encoding="UTF-8" standalone="no"?>
<svg
   version="1.1"
   viewBox="-11 0 1792 1792"
   id="svg184"
   sodipodi:docname="read.svg"
   width="1792"
   height="1792"
   inkscape:version="1.1.2 (0a00cf5339, 2022-02-04)"
   xmlns:inkscape="http://www.inkscape.org/namespaces/inkscape"
   xmlns:sodipodi="http://sodipodi.sourceforge.net/DTD/sodipodi-0.dtd"
   xmlns="http://www.w3.org/2000/svg"
   xmlns:svg="http://www.w3.org/2000/svg">
  <defs
     id="defs188" />
  <sodipodi:namedview
     id="namedview186"
     pagecolor="#ffffff"
     bordercolor="#666666"
     borderopacity="1.0"
     inkscape:pageshadow="2"
     inkscape:pageopacity="0.0"
     inkscape:pagecheckerboard="0"
     showgrid="false"
     inkscape:zoom="0.24358259"
     inkscape:cx="519.33104"
     inkscape:cy="1089.9794"
     inkscape:window-width="1846"
     inkscape:window-height="1016"
     inkscape:window-x="0"
     inkscape:window-y="0"
     inkscape:window-maximized="1"
     inkscape:current-layer="svg184" />
  <path
     fill="currentColor"
     d="m 1691.8576,478 q 40,57 18,129 l -275,906 q -19,64 -76.5,107.5 -57.5,43.5 -122.5,43.5 H 312.85764 q -77,0 -148.5,-53.5 Q 92.857644,1557 64.857644,1479 q -24,-67 -2,-127 0,-4 3,-27 3,-23 4,-37 1,-8 -3,-21.5 -4,-13.5 -3,-19.5 2,-11 8,-21 6,-10 16.5,-23.5 10.5,-13.5 16.499996,-23.5 23,-38 45,-91.5 22,-53.5 30,-91.5 3,-10 0.5,-30 -2.5,-20 -0.5,-28 3,-11 17,-28 14,-17 17,-23 21,-36 42,-92 21,-56 25,-90 1,-9 -2.5,-32 -3.5,-23 0.5,-28 4,-13 22,-30.5 18,-17.5 22,-22.5 19,-26 42.5,-84.5 23.5,-58.5 27.5,-96.5 1,-8 -3,-25.5 -4,-17.5 -2,-26.5 2,-8 9,-18 7,-10 18,-23 11,-13 17,-21 8,-12 16.5,-30.5 8.5,-18.5 15,-35 6.5,-16.5 16,-36 9.5,-19.5 19.5,-32 10,-12.5 26.5,-23.5 16.5,-11 36,-11.5 19.5,-0.5 47.5,5.5 l -1,3 q 38,-9 51,-9 h 760.99996 q 74,0 114,56 40,56 18,130 l -274,906 q -36,119 -71.5,153.5 -35.5,34.5 -128.5,34.5 H 208.85764 q -27,0 -38,15 -11,16 -1,43 24,70 144,70 h 922.99996 q 29,0 56,-15.5 27,-15.5 35,-41.5 l 300,-987 q 7,-22 5,-57 38,15 59,43 z m -1063.99996,2 q -4,13 2,22.5 6,9.5 20,9.5 h 607.99996 q 13,0 25.5,-9.5 12.5,-9.5 16.5,-22.5 l 21,-64 q 4,-13 -2,-22.5 -6,-9.5 -20,-9.5 H 690.85764 q -13,0 -25.5,9.5 -12.5,9.5 -16.5,22.5 z m -83,256 q -4,13 2,22.5 6,9.5 20,9.5 h 607.99996 q 13,0 25.5,-9.5 12.5,-9.5 16.5,-22.5 l 21,-64 q 4,-13 -2,-22.5 -6,-9.5 -20,-9.5 H 607.85764 q -13,0 -25.5,9.5 -12.5,9.5 -16.5,22.5 z"
     id="path182" />
</svg>
