<svg width="64" height="64" viewBox="0 0 64 64" fill="none" xmlns="http://www.w3.org/2000/svg">
<rect y="8" width="64" height="44" fill="#989898"/>
<path d="M2 11.1111C2 10.4975 2.49746 10 3.11111 10H5.88889C6.50254 10 7 10.4975 7 11.1111V13.8889C7 14.5025 6.50254 15 5.88889 15H3.11111C2.49746 15 2 14.5025 2 13.8889V11.1111Z" fill="#0F0F0F"/>
<path d="M9 11.1111C9 10.4975 9 10 10.0234 10H61.0185C62 10 62 10.4975 62 11.1111V13.8889C62 14.5025 62 15 61.0185 15H9.98148C9 15 9 14.5025 9 13.8889V11.1111Z" fill="#0D0D0D"/>
<path d="M9 11.1111C9 10.4975 9 10 10.0234 10H61.0185C62 10 62 10.4975 62 11.1111V13.8889C62 14.5025 62 15 61.0185 15H9.98148C9 15 9 14.5025 9 13.8889V11.1111Z" fill="#0D0D0D"/>
<path d="M3.11111 50C2.49746 50 2 50 2 49.3628L2 17.6111C2 17 2.49746 17 3.11111 17H5.88889C6.50254 17 7 17 7 17.6111L7 49.3889C7 50 6.50254 50 5.88889 50H3.11111Z" fill="#0D0D0D"/>
<path d="M9.75 17.5H17.25C17.3864 17.5 17.4384 17.5232 17.4484 17.5285C17.4486 17.5287 17.4488 17.5288 17.449 17.5289C17.4499 17.5304 17.4513 17.533 17.4531 17.5367C17.4646 17.5615 17.4808 17.6153 17.4902 17.7225C17.4996 17.8293 17.5 17.9523 17.5 18.1111V20.8889C17.5 21.0477 17.4996 21.1707 17.4902 21.2775C17.4808 21.3847 17.4646 21.4385 17.4531 21.4633C17.4513 21.467 17.4499 21.4696 17.449 21.4711C17.4488 21.4712 17.4486 21.4713 17.4484 21.4715C17.4384 21.4768 17.3864 21.5 17.25 21.5H9.75C9.61364 21.5 9.56161 21.4768 9.55162 21.4715C9.5514 21.4713 9.5512 21.4712 9.55101 21.4711C9.55007 21.4696 9.54867 21.467 9.54691 21.4633C9.53536 21.4385 9.51924 21.3847 9.50979 21.2775C9.50037 21.1707 9.5 21.0477 9.5 20.8889V17.8333C9.5 17.6813 9.50057 17.5858 9.50723 17.5137C9.55683 17.5062 9.63379 17.5 9.75 17.5Z" stroke="black"/>
<path d="M31.75 17.5H39.25C39.3864 17.5 39.4384 17.5232 39.4484 17.5285C39.4486 17.5287 39.4488 17.5288 39.449 17.5289C39.4499 17.5304 39.4513 17.533 39.4531 17.5367C39.4646 17.5615 39.4808 17.6153 39.4902 17.7225C39.4996 17.8293 39.5 17.9523 39.5 18.1111V20.8889C39.5 21.0477 39.4996 21.1707 39.4902 21.2775C39.4808 21.3847 39.4646 21.4385 39.4531 21.4633C39.4513 21.467 39.4499 21.4696 39.449 21.4711C39.4488 21.4712 39.4486 21.4713 39.4484 21.4715C39.4384 21.4768 39.3864 21.5 39.25 21.5H31.75C31.6136 21.5 31.5616 21.4768 31.5516 21.4715C31.5514 21.4713 31.5512 21.4712 31.551 21.4711C31.5501 21.4696 31.5487 21.467 31.5469 21.4633C31.5354 21.4385 31.5192 21.3847 31.5098 21.2775C31.5004 21.1707 31.5 21.0477 31.5 20.8889V17.8333C31.5 17.6813 31.5006 17.5858 31.5072 17.5137C31.5568 17.5062 31.6338 17.5 31.75 17.5Z" stroke="black"/>
<path d="M42.75 17.5H50.25C50.3864 17.5 50.4384 17.5232 50.4484 17.5285C50.4486 17.5287 50.4488 17.5288 50.449 17.5289C50.4499 17.5304 50.4513 17.533 50.4531 17.5367C50.4646 17.5615 50.4808 17.6153 50.4902 17.7225C50.4996 17.8293 50.5 17.9523 50.5 18.1111V20.8889C50.5 21.0477 50.4996 21.1707 50.4902 21.2775C50.4808 21.3847 50.4646 21.4385 50.4531 21.4633C50.4513 21.467 50.4499 21.4696 50.449 21.4711C50.4488 21.4712 50.4486 21.4713 50.4484 21.4715C50.4384 21.4768 50.3864 21.5 50.25 21.5H42.75C42.6136 21.5 42.5616 21.4768 42.5516 21.4715C42.5514 21.4713 42.5512 21.4712 42.551 21.4711C42.5501 21.4696 42.5487 21.467 42.5469 21.4633C42.5354 21.4385 42.5192 21.3847 42.5098 21.2775C42.5004 21.1707 42.5 21.0477 42.5 20.8889V17.8333C42.5 17.6813 42.5006 17.5858 42.5072 17.5137C42.5568 17.5062 42.6338 17.5 42.75 17.5Z" stroke="black"/>
<path d="M53.75 17.5H61.25C61.3864 17.5 61.4384 17.5232 61.4484 17.5285C61.4486 17.5287 61.4488 17.5288 61.449 17.5289C61.4499 17.5304 61.4513 17.533 61.4531 17.5367C61.4646 17.5615 61.4808 17.6153 61.4902 17.7225C61.4996 17.8293 61.5 17.9523 61.5 18.1111V20.8889C61.5 21.0477 61.4996 21.1707 61.4902 21.2775C61.4808 21.3847 61.4646 21.4385 61.4531 21.4633C61.4513 21.467 61.4499 21.4696 61.449 21.4711C61.4488 21.4712 61.4486 21.4713 61.4484 21.4715C61.4384 21.4768 61.3864 21.5 61.25 21.5H53.75C53.6136 21.5 53.5616 21.4768 53.5516 21.4715C53.5514 21.4713 53.5512 21.4712 53.551 21.4711C53.5501 21.4696 53.5487 21.467 53.5469 21.4633C53.5354 21.4385 53.5192 21.3847 53.5098 21.2775C53.5004 21.1707 53.5 21.0477 53.5 20.8889V17.8333C53.5 17.6813 53.5006 17.5858 53.5072 17.5137C53.5568 17.5062 53.6338 17.5 53.75 17.5Z" stroke="black"/>
<path d="M9.75 38.5H17.25C17.3864 38.5 17.4384 38.5232 17.4484 38.5285C17.4486 38.5287 17.4488 38.5288 17.449 38.5289C17.4499 38.5304 17.4513 38.533 17.4531 38.5367C17.4646 38.5615 17.4808 38.6153 17.4902 38.7225C17.4996 38.8293 17.5 38.9523 17.5 39.1111V41.8889C17.5 42.0477 17.4996 42.1707 17.4902 42.2775C17.4808 42.3847 17.4646 42.4385 17.4531 42.4633C17.4513 42.467 17.4499 42.4696 17.449 42.4711C17.4488 42.4712 17.4486 42.4713 17.4484 42.4715C17.4384 42.4768 17.3864 42.5 17.25 42.5H9.75C9.61364 42.5 9.56161 42.4768 9.55162 42.4715C9.5514 42.4713 9.5512 42.4712 9.55101 42.4711C9.55007 42.4696 9.54867 42.467 9.54691 42.4633C9.53536 42.4385 9.51924 42.3847 9.50979 42.2775C9.50037 42.1707 9.5 42.0477 9.5 41.8889V38.8333C9.5 38.6813 9.50057 38.5858 9.50723 38.5137C9.55683 38.5062 9.63379 38.5 9.75 38.5Z" stroke="black"/>
<path d="M31.75 38.5H39.25C39.3864 38.5 39.4384 38.5232 39.4484 38.5285C39.4486 38.5287 39.4488 38.5288 39.449 38.5289C39.4499 38.5304 39.4513 38.533 39.4531 38.5367C39.4646 38.5615 39.4808 38.6153 39.4902 38.7225C39.4996 38.8293 39.5 38.9523 39.5 39.1111V41.8889C39.5 42.0477 39.4996 42.1707 39.4902 42.2775C39.4808 42.3847 39.4646 42.4385 39.4531 42.4633C39.4513 42.467 39.4499 42.4696 39.449 42.4711C39.4488 42.4712 39.4486 42.4713 39.4484 42.4715C39.4384 42.4768 39.3864 42.5 39.25 42.5H31.75C31.6136 42.5 31.5616 42.4768 31.5516 42.4715C31.5514 42.4713 31.5512 42.4712 31.551 42.4711C31.5501 42.4696 31.5487 42.467 31.5469 42.4633C31.5354 42.4385 31.5192 42.3847 31.5098 42.2775C31.5004 42.1707 31.5 42.0477 31.5 41.8889V38.8333C31.5 38.6813 31.5006 38.5858 31.5072 38.5137C31.5568 38.5062 31.6338 38.5 31.75 38.5Z" stroke="black"/>
<path d="M42.75 38.5H50.25C50.3864 38.5 50.4384 38.5232 50.4484 38.5285C50.4486 38.5287 50.4488 38.5288 50.449 38.5289C50.4499 38.5304 50.4513 38.533 50.4531 38.5367C50.4646 38.5615 50.4808 38.6153 50.4902 38.7225C50.4996 38.8293 50.5 38.9523 50.5 39.1111V41.8889C50.5 42.0477 50.4996 42.1707 50.4902 42.2775C50.4808 42.3847 50.4646 42.4385 50.4531 42.4633C50.4513 42.467 50.4499 42.4696 50.449 42.4711C50.4488 42.4712 50.4486 42.4713 50.4484 42.4715C50.4384 42.4768 50.3864 42.5 50.25 42.5H42.75C42.6136 42.5 42.5616 42.4768 42.5516 42.4715C42.5514 42.4713 42.5512 42.4712 42.551 42.4711C42.5501 42.4696 42.5487 42.467 42.5469 42.4633C42.5354 42.4385 42.5192 42.3847 42.5098 42.2775C42.5004 42.1707 42.5 42.0477 42.5 41.8889V38.8333C42.5 38.6813 42.5006 38.5858 42.5072 38.5137C42.5568 38.5062 42.6338 38.5 42.75 38.5Z" stroke="black"/>
<path d="M53.75 38.5H61.25C61.3864 38.5 61.4384 38.5232 61.4484 38.5285C61.4486 38.5287 61.4488 38.5288 61.449 38.5289C61.4499 38.5304 61.4513 38.533 61.4531 38.5367C61.4646 38.5615 61.4808 38.6153 61.4902 38.7225C61.4996 38.8293 61.5 38.9523 61.5 39.1111V41.8889C61.5 42.0477 61.4996 42.1707 61.4902 42.2775C61.4808 42.3847 61.4646 42.4385 61.4531 42.4633C61.4513 42.467 61.4499 42.4696 61.449 42.4711C61.4488 42.4712 61.4486 42.4713 61.4484 42.4715C61.4384 42.4768 61.3864 42.5 61.25 42.5H53.75C53.6136 42.5 53.5616 42.4768 53.5516 42.4715C53.5514 42.4713 53.5512 42.4712 53.551 42.4711C53.5501 42.4696 53.5487 42.467 53.5469 42.4633C53.5354 42.4385 53.5192 42.3847 53.5098 42.2775C53.5004 42.1707 53.5 42.0477 53.5 41.8889V38.8333C53.5 38.6813 53.5006 38.5858 53.5072 38.5137C53.5568 38.5062 53.6338 38.5 53.75 38.5Z" stroke="black"/>
<path d="M9.75 24.5H17.25C17.3864 24.5 17.4384 24.5232 17.4484 24.5285C17.4486 24.5287 17.4488 24.5288 17.449 24.5289C17.4499 24.5304 17.4513 24.533 17.4531 24.5367C17.4646 24.5615 17.4808 24.6153 17.4902 24.7225C17.4996 24.8293 17.5 24.9523 17.5 25.1111V27.8889C17.5 28.0477 17.4996 28.1707 17.4902 28.2775C17.4808 28.3847 17.4646 28.4385 17.4531 28.4633C17.4513 28.467 17.4499 28.4696 17.449 28.4711C17.4488 28.4712 17.4486 28.4713 17.4484 28.4715C17.4384 28.4768 17.3864 28.5 17.25 28.5H9.75C9.61364 28.5 9.56161 28.4768 9.55162 28.4715C9.5514 28.4713 9.5512 28.4712 9.55101 28.4711C9.55007 28.4696 9.54867 28.467 9.54691 28.4633C9.53536 28.4385 9.51924 28.3847 9.50979 28.2775C9.50037 28.1707 9.5 28.0477 9.5 27.8889V24.8333C9.5 24.6813 9.50057 24.5858 9.50723 24.5137C9.55683 24.5062 9.63379 24.5 9.75 24.5Z" stroke="black"/>
<path d="M31.75 24.5H39.25C39.3864 24.5 39.4384 24.5232 39.4484 24.5285C39.4486 24.5287 39.4488 24.5288 39.449 24.5289C39.4499 24.5304 39.4513 24.533 39.4531 24.5367C39.4646 24.5615 39.4808 24.6153 39.4902 24.7225C39.4996 24.8293 39.5 24.9523 39.5 25.1111V27.8889C39.5 28.0477 39.4996 28.1707 39.4902 28.2775C39.4808 28.3847 39.4646 28.4385 39.4531 28.4633C39.4513 28.467 39.4499 28.4696 39.449 28.4711C39.4488 28.4712 39.4486 28.4713 39.4484 28.4715C39.4384 28.4768 39.3864 28.5 39.25 28.5H31.75C31.6136 28.5 31.5616 28.4768 31.5516 28.4715C31.5514 28.4713 31.5512 28.4712 31.551 28.4711C31.5501 28.4696 31.5487 28.467 31.5469 28.4633C31.5354 28.4385 31.5192 28.3847 31.5098 28.2775C31.5004 28.1707 31.5 28.0477 31.5 27.8889V24.8333C31.5 24.6813 31.5006 24.5858 31.5072 24.5137C31.5568 24.5062 31.6338 24.5 31.75 24.5Z" stroke="black"/>
<path d="M42.75 24.5H50.25C50.3864 24.5 50.4384 24.5232 50.4484 24.5285C50.4486 24.5287 50.4488 24.5288 50.449 24.5289C50.4499 24.5304 50.4513 24.533 50.4531 24.5367C50.4646 24.5615 50.4808 24.6153 50.4902 24.7225C50.4996 24.8293 50.5 24.9523 50.5 25.1111V27.8889C50.5 28.0477 50.4996 28.1707 50.4902 28.2775C50.4808 28.3847 50.4646 28.4385 50.4531 28.4633C50.4513 28.467 50.4499 28.4696 50.449 28.4711C50.4488 28.4712 50.4486 28.4713 50.4484 28.4715C50.4384 28.4768 50.3864 28.5 50.25 28.5H42.75C42.6136 28.5 42.5616 28.4768 42.5516 28.4715C42.5514 28.4713 42.5512 28.4712 42.551 28.4711C42.5501 28.4696 42.5487 28.467 42.5469 28.4633C42.5354 28.4385 42.5192 28.3847 42.5098 28.2775C42.5004 28.1707 42.5 28.0477 42.5 27.8889V24.8333C42.5 24.6813 42.5006 24.5858 42.5072 24.5137C42.5568 24.5062 42.6338 24.5 42.75 24.5Z" stroke="black"/>
<path d="M53.75 24.5H61.25C61.3864 24.5 61.4384 24.5232 61.4484 24.5285C61.4486 24.5287 61.4488 24.5288 61.449 24.5289C61.4499 24.5304 61.4513 24.533 61.4531 24.5367C61.4646 24.5615 61.4808 24.6153 61.4902 24.7225C61.4996 24.8293 61.5 24.9523 61.5 25.1111V27.8889C61.5 28.0477 61.4996 28.1707 61.4902 28.2775C61.4808 28.3847 61.4646 28.4385 61.4531 28.4633C61.4513 28.467 61.4499 28.4696 61.449 28.4711C61.4488 28.4712 61.4486 28.4713 61.4484 28.4715C61.4384 28.4768 61.3864 28.5 61.25 28.5H53.75C53.6136 28.5 53.5616 28.4768 53.5516 28.4715C53.5514 28.4713 53.5512 28.4712 53.551 28.4711C53.5501 28.4696 53.5487 28.467 53.5469 28.4633C53.5354 28.4385 53.5192 28.3847 53.5098 28.2775C53.5004 28.1707 53.5 28.0477 53.5 27.8889V24.8333C53.5 24.6813 53.5006 24.5858 53.5072 24.5137C53.5568 24.5062 53.6338 24.5 53.75 24.5Z" stroke="black"/>
<path d="M9.75 45.5H17.25C17.3864 45.5 17.4384 45.5232 17.4484 45.5285C17.4486 45.5287 17.4488 45.5288 17.449 45.5289C17.4499 45.5304 17.4513 45.533 17.4531 45.5367C17.4646 45.5615 17.4808 45.6153 17.4902 45.7225C17.4996 45.8293 17.5 45.9523 17.5 46.1111V48.8889C17.5 49.0477 17.4996 49.1707 17.4902 49.2775C17.4808 49.3847 17.4646 49.4385 17.4531 49.4633C17.4513 49.467 17.4499 49.4696 17.449 49.4711C17.4488 49.4712 17.4486 49.4713 17.4484 49.4715C17.4384 49.4768 17.3864 49.5 17.25 49.5H9.75C9.61364 49.5 9.56161 49.4768 9.55162 49.4715C9.5514 49.4713 9.5512 49.4712 9.55101 49.4711C9.55007 49.4696 9.54867 49.467 9.54691 49.4633C9.53536 49.4385 9.51924 49.3847 9.50979 49.2775C9.50037 49.1707 9.5 49.0477 9.5 48.8889V45.8333C9.5 45.6813 9.50057 45.5858 9.50723 45.5137C9.55683 45.5062 9.63379 45.5 9.75 45.5Z" stroke="black"/>
<path d="M31.75 45.5H39.25C39.3864 45.5 39.4384 45.5232 39.4484 45.5285C39.4486 45.5287 39.4488 45.5288 39.449 45.5289C39.4499 45.5304 39.4513 45.533 39.4531 45.5367C39.4646 45.5615 39.4808 45.6153 39.4902 45.7225C39.4996 45.8293 39.5 45.9523 39.5 46.1111V48.8889C39.5 49.0477 39.4996 49.1707 39.4902 49.2775C39.4808 49.3847 39.4646 49.4385 39.4531 49.4633C39.4513 49.467 39.4499 49.4696 39.449 49.4711C39.4488 49.4712 39.4486 49.4713 39.4484 49.4715C39.4384 49.4768 39.3864 49.5 39.25 49.5H31.75C31.6136 49.5 31.5616 49.4768 31.5516 49.4715C31.5514 49.4713 31.5512 49.4712 31.551 49.4711C31.5501 49.4696 31.5487 49.467 31.5469 49.4633C31.5354 49.4385 31.5192 49.3847 31.5098 49.2775C31.5004 49.1707 31.5 49.0477 31.5 48.8889V45.8333C31.5 45.6813 31.5006 45.5858 31.5072 45.5137C31.5568 45.5062 31.6338 45.5 31.75 45.5Z" stroke="black"/>
<path d="M42.75 45.5H50.25C50.3864 45.5 50.4384 45.5232 50.4484 45.5285C50.4486 45.5287 50.4488 45.5288 50.449 45.5289C50.4499 45.5304 50.4513 45.533 50.4531 45.5367C50.4646 45.5615 50.4808 45.6153 50.4902 45.7225C50.4996 45.8293 50.5 45.9523 50.5 46.1111V48.8889C50.5 49.0477 50.4996 49.1707 50.4902 49.2775C50.4808 49.3847 50.4646 49.4385 50.4531 49.4633C50.4513 49.467 50.4499 49.4696 50.449 49.4711C50.4488 49.4712 50.4486 49.4713 50.4484 49.4715C50.4384 49.4768 50.3864 49.5 50.25 49.5H42.75C42.6136 49.5 42.5616 49.4768 42.5516 49.4715C42.5514 49.4713 42.5512 49.4712 42.551 49.4711C42.5501 49.4696 42.5487 49.467 42.5469 49.4633C42.5354 49.4385 42.5192 49.3847 42.5098 49.2775C42.5004 49.1707 42.5 49.0477 42.5 48.8889V45.8333C42.5 45.6813 42.5006 45.5858 42.5072 45.5137C42.5568 45.5062 42.6338 45.5 42.75 45.5Z" stroke="black"/>
<path d="M53.75 45.5H61.25C61.3864 45.5 61.4384 45.5232 61.4484 45.5285C61.4486 45.5287 61.4488 45.5288 61.449 45.5289C61.4499 45.5304 61.4513 45.533 61.4531 45.5367C61.4646 45.5615 61.4808 45.6153 61.4902 45.7225C61.4996 45.8293 61.5 45.9523 61.5 46.1111V48.8889C61.5 49.0477 61.4996 49.1707 61.4902 49.2775C61.4808 49.3847 61.4646 49.4385 61.4531 49.4633C61.4513 49.467 61.4499 49.4696 61.449 49.4711C61.4488 49.4712 61.4486 49.4713 61.4484 49.4715C61.4384 49.4768 61.3864 49.5 61.25 49.5H53.75C53.6136 49.5 53.5616 49.4768 53.5516 49.4715C53.5514 49.4713 53.5512 49.4712 53.551 49.4711C53.5501 49.4696 53.5487 49.467 53.5469 49.4633C53.5354 49.4385 53.5192 49.3847 53.5098 49.2775C53.5004 49.1707 53.5 49.0477 53.5 48.8889V45.8333C53.5 45.6813 53.5006 45.5858 53.5072 45.5137C53.5568 45.5062 53.6338 45.5 53.75 45.5Z" stroke="black"/>
<path d="M20 18.1111C20 17.4975 20 17 20.75 17H28.25C29 17 29 17.4975 29 18.1111V20.8889C29 21.5025 29 22 28.25 22H20.75C20 22 20 21.5025 20 20.8889V18.1111Z" fill="#0D0D0D"/>
<path d="M20 39.1111C20 38.4975 20 38 20.75 38H28.25C29 38 29 38.4975 29 39.1111V41.8889C29 42.5025 29 43 28.25 43H20.75C20 43 20 42.5025 20 41.8889V39.1111Z" fill="#0D0D0D"/>
<path d="M20 25.1111C20 24.4975 20 24 20.75 24H28.25C29 24 29 24.4975 29 25.1111V27.8889C29 28.5025 29 29 28.25 29H20.75C20 29 20 28.5025 20 27.8889V25.1111Z" fill="#0D0D0D"/>
<path d="M9 32.1111C9 31.4975 9 31 9.75 31H17.25C18 31 18 31.4975 18 32.1111V34.8889C18 35.5025 18 36 17.25 36H9.75C8.99999 36 9 35.5025 9 34.8889V32.1111Z" fill="#0D0D0D"/>
<path d="M31 32.1111C31 31.4975 31 31 31.75 31H39.25C40 31 40 31.4975 40 32.1111V34.8889C40 35.5025 40 36 39.25 36H31.75C31 36 31 35.5025 31 34.8889V32.1111Z" fill="#0D0D0D"/>
<path d="M20 32.1111C20 31.4975 20 31 20.75 31H28.25C29 31 29 31.4975 29 32.1111V34.8889C29 35.5025 29 36 28.25 36H20.75C20 36 20 35.5025 20 34.8889V32.1111Z" fill="#0D0D0D"/>
<path d="M20 46.1111C20 45.4975 20 45 20.75 45H28.25C29 45 29 45.4975 29 46.1111V48.8889C29 49.5025 29 50 28.25 50H20.75C20 50 20 49.5025 20 48.8889V46.1111Z" fill="#0D0D0D"/>
<path d="M42 32.1111C42 31.4975 42 31 42.75 31H50.25C51 31 51 31.4975 51 32.1111V34.8889C51 35.5025 51 36 50.25 36H42.75C42 36 42 35.5025 42 34.8889V32.1111Z" fill="#0D0D0D"/>
<path d="M53 32.1111C53 31.4975 53 31 53.75 31H61.25C62 31 62 31.4975 62 32.1111V34.8889C62 35.5025 62 36 61.25 36H53.75C53 36 53 35.5025 53 34.8889V32.1111Z" fill="#0D0D0D"/>
</svg>
