<svg width="24" height="24" viewBox="0 0 24 24" fill="none" xmlns="http://www.w3.org/2000/svg">
<path fill-rule="evenodd" clip-rule="evenodd" d="M4 13C2.89543 13 2 13.8954 2 15V20C2 21.1046 2.89543 22 4 22H9C10.1046 22 11 21.1046 11 20V15C11 13.8954 10.1046 13 9 13H4ZM15 13C13.8954 13 13 13.8954 13 15V20C13 21.1046 13.8954 22 15 22H20C21.1046 22 22 21.1046 22 20V15C22 13.8954 21.1046 13 20 13H15Z" fill="#0D0D0D"/>
<path fill-rule="evenodd" clip-rule="evenodd" d="M4 2C2.89543 2 2 2.89543 2 4V9C2 10.1046 2.89543 11 4 11H9C10.1046 11 11 10.1046 11 9V4C11 2.89543 10.1046 2 9 2H4ZM15 2C13.8954 2 13 2.89543 13 4V9C13 10.1046 13.8954 11 15 11H20C21.1046 11 22 10.1046 22 9V4C22 2.89543 21.1046 2 20 2H15Z" fill="#0D0D0D"/>
</svg>
