<svg width="25" height="24" viewBox="0 0 25 24" fill="none" xmlns="http://www.w3.org/2000/svg">
<path fill-rule="evenodd" clip-rule="evenodd" d="M4.5 11C3.94772 11 3.5 11.4477 3.5 12C3.5 12.5523 3.94772 13 4.5 13H20.5C21.0523 13 21.5 12.5523 21.5 12C21.5 11.4477 21.0523 11 20.5 11H4.5ZM3.5 16C3.5 15.4477 3.94772 15 4.5 15H20.5C21.0523 15 21.5 15.4477 21.5 16C21.5 16.5523 21.0523 17 20.5 17H4.5C3.94772 17 3.5 16.5523 3.5 16ZM3.5 20C3.5 19.4477 3.94772 19 4.5 19H20.5C21.0523 19 21.5 19.4477 21.5 20C21.5 20.5523 21.0523 21 20.5 21H4.5C3.94772 21 3.5 20.5523 3.5 20Z" fill="#0D0D0D"/>
<path fill-rule="evenodd" clip-rule="evenodd" d="M4.5 3C3.94772 3 3.5 3.44772 3.5 4C3.5 4.55228 3.94772 5 4.5 5H20.5C21.0523 5 21.5 4.55228 21.5 4C21.5 3.44772 21.0523 3 20.5 3H4.5ZM4.5 7C3.94772 7 3.5 7.44772 3.5 8C3.5 8.55228 3.94772 9 4.5 9H20.5C21.0523 9 21.5 8.55228 21.5 8C21.5 7.44772 21.0523 7 20.5 7H4.5Z" fill="#0D0D0D"/>
</svg>
